<svg xmlns="http://www.w3.org/2000/svg" viewBox="0 0 500 500"><g id="freepik--Plants--inject-72"><g id="freepik--plants--inject-72"><path d="M450.34,288c-9.35.86-19.28,15.9-22.2,31.68-1.72,9.36-1.48,20.45-1.59,27.82l3.27,2,1.08.67,3.17,1.8,2.55,1.48c.43-7.87,1.46-13.71,3.28-19h0a47.69,47.69,0,0,1,4.74-10c3.84-6.18,9.31-12.06,11.79-16.34C462.65,297.49,459,287.21,450.34,288Z" style="fill:#BA68C8"></path><g style="opacity:0.65"><path d="M450.34,288c-9.35.86-19.28,15.9-22.2,31.68-1.72,9.36-1.48,20.45-1.59,27.82l3.27,2,1.08.67,3.17,1.8,2.55,1.48c.43-7.87,1.46-13.71,3.28-19h0a47.69,47.69,0,0,1,4.74-10c3.84-6.18,9.31-12.06,11.79-16.34C462.65,297.49,459,287.21,450.34,288Z" style="fill:#fff"></path></g><path d="M452.15,294.58c-10.69,8.35-20.74,31-21.25,55.58l-1.08-.67c.75-24.57,10.9-47.42,21.65-55.8a.56.56,0,0,1,.68.89Z" style="fill:#fff"></path><path d="M456.24,318.33c-2.16.67-7.56,3.94-9.54,6.33a63.55,63.55,0,0,0-6.8,9.79h0a50.64,50.64,0,0,0-5.83,17.5l6.72,4a31.87,31.87,0,0,1,5-8.52c6.91-9.12,20.52-14.1,22.25-19.59C470.09,321.22,465.87,315.37,456.24,318.33Z" style="fill:#BA68C8"></path><path d="M456.24,318.33c-2.16.67-7.56,3.94-9.54,6.33a63.55,63.55,0,0,0-6.8,9.79h0a50.64,50.64,0,0,0-5.83,17.5l6.72,4a31.87,31.87,0,0,1,5-8.52c6.91-9.12,20.52-14.1,22.25-19.59C470.09,321.22,465.87,315.37,456.24,318.33Z" style="fill:#fff;opacity:0.30000000000000004"></path><path d="M436.62,353.47l1,.61c4.11-17.52,15.44-26.91,21.71-29.62a.56.56,0,0,0,.3-.74.55.55,0,0,0-.74-.28C452,326.41,440.8,335.82,436.62,353.47Z" style="fill:#fff"></path></g></g><g id="freepik--Gears--inject-72"><g id="freepik--gears--inject-72"><path id="freepik--Shadow--inject-72" d="M390,412.22a5.5,5.5,0,0,1-5.33-4.42l-.9-4.75a59,59,0,0,1-6.06-1.51l-9.25,4.29a6.29,6.29,0,0,1-2.61.55,6.37,6.37,0,0,1-3.17-.81l-9.47-5.47a4.69,4.69,0,0,1-.4-8l5-3.58c-.23-.34-.45-.68-.67-1l-11.56-.73a5.28,5.28,0,0,1-4.93-5.25v-7a5.27,5.27,0,0,1,4.94-5.25l11.55-.73c.22-.35.44-.7.67-1l-5-3.57a4.69,4.69,0,0,1,.41-8l9.46-5.46a6.39,6.39,0,0,1,3.17-.82,6.26,6.26,0,0,1,2.61.56l9.25,4.28a59,59,0,0,1,6.06-1.5l.9-4.76a5.5,5.5,0,0,1,5.33-4.42h13.92a5.51,5.51,0,0,1,5.34,4.42l.9,4.76a59,59,0,0,1,6.06,1.5l9.25-4.28a6.23,6.23,0,0,1,2.61-.56,6.42,6.42,0,0,1,3.17.82l9.46,5.46a4.7,4.7,0,0,1,.4,8l-5,3.57c.24.34.46.69.67,1l11.57.73a5.27,5.27,0,0,1,4.93,5.25v7a5.28,5.28,0,0,1-4.93,5.25l-11.57.73c-.21.35-.43.69-.67,1l5,3.57a4.7,4.7,0,0,1-.4,8l-9.46,5.47a6.42,6.42,0,0,1-3.17.81h0a6.26,6.26,0,0,1-2.61-.55l-9.25-4.29a59,59,0,0,1-6.06,1.51l-.9,4.76a5.51,5.51,0,0,1-5.34,4.41Zm7-43.28a28.9,28.9,0,0,0-14,3.29c-2.94,1.7-4.62,3.8-4.62,5.77s1.68,4.07,4.62,5.76a31.39,31.39,0,0,0,28,0c2.94-1.69,4.63-3.79,4.63-5.76s-1.69-4.07-4.63-5.77A28.87,28.87,0,0,0,397,368.94Z" style="fill:#e0e0e0"></path><path d="M438.71,351.15l-9.46-5.46a2.57,2.57,0,0,0-2.1-.1L417.56,350a3.6,3.6,0,0,1-2.2.13,55.8,55.8,0,0,0-7.45-1.77,1.84,1.84,0,0,1-1.39-1.35l-1.2-6.32a1.47,1.47,0,0,0-1.4-1.16H390a1.48,1.48,0,0,0-1.4,1.16l-1.2,6.32A1.81,1.81,0,0,1,386,348.4a55.66,55.66,0,0,0-7.44,1.77,3.59,3.59,0,0,1-2.2-.13l-9.6-4.45a2.54,2.54,0,0,0-2.09.1l-9.47,5.46a.79.79,0,0,0-.44.64h0l0,8.21h0a.81.81,0,0,0,.38.64l4.35,3.13a2.13,2.13,0,0,1-1.07.45l-12.62.8a1.27,1.27,0,0,0-1.18,1.25v5.36h0l0,9.87a1.27,1.27,0,0,0,1.18,1.26l12.62.8a2.09,2.09,0,0,1,1.09.46l-4.33,3.12a.79.79,0,0,0-.38.63h0l0,8.21h0a.76.76,0,0,0,.44.64l9.47,5.47a2.54,2.54,0,0,0,2.09.09l9.6-4.44a3.43,3.43,0,0,1,2.19-.13,59.08,59.08,0,0,0,7.45,1.77,1.8,1.8,0,0,1,1.39,1.34l1.2,6.33a1.48,1.48,0,0,0,1.4,1.16H403.9a1.48,1.48,0,0,0,1.4-1.16l1.2-6.33a1.8,1.8,0,0,1,1.39-1.34,59.08,59.08,0,0,0,7.45-1.77,3.43,3.43,0,0,1,2.19.13l9.6,4.44a2.54,2.54,0,0,0,2.09-.09l9.47-5.47a.76.76,0,0,0,.44-.62h0l0-8.23h0a.78.78,0,0,0-.37-.63L434.42,384a2.11,2.11,0,0,1,1.08-.44l12.61-.8a1.27,1.27,0,0,0,1.18-1.26l0-8.17v-7.07a1.29,1.29,0,0,0-1.18-1.26l-12.61-.79a2.17,2.17,0,0,1-1.1-.47l4.33-3.11a.78.78,0,0,0,.38-.63h0l0-8.22h0A.77.77,0,0,0,438.71,351.15Zm-63.9,21.26c.68-2.27,2.7-4.49,6.16-6.48,8.83-5.1,23.15-5.1,32,0,3.24,1.87,5.35,3.93,6.31,6-.75,2.59-2.85,5.07-6.31,7.06-8.83,5.1-23.15,5.1-32,0C377.72,377.14,375.67,374.83,374.81,372.41Z" style="fill:#BA68C8"></path><path d="M438.71,351.15l-9.46-5.46a2.57,2.57,0,0,0-2.1-.1L417.56,350a3.6,3.6,0,0,1-2.2.13,55.8,55.8,0,0,0-7.45-1.77,1.84,1.84,0,0,1-1.39-1.35l-1.2-6.32a1.47,1.47,0,0,0-1.4-1.16H390a1.48,1.48,0,0,0-1.4,1.16l-1.2,6.32A1.81,1.81,0,0,1,386,348.4a55.66,55.66,0,0,0-7.44,1.77,3.59,3.59,0,0,1-2.2-.13l-9.6-4.45a2.54,2.54,0,0,0-2.09.1l-9.47,5.46a.79.79,0,0,0-.44.64h0l0,8.21h0a.81.81,0,0,0,.38.64l4.35,3.13a2.13,2.13,0,0,1-1.07.45l-12.62.8a1.27,1.27,0,0,0-1.18,1.25v5.36h0l0,9.87a1.27,1.27,0,0,0,1.18,1.26l12.62.8a2.09,2.09,0,0,1,1.09.46l-4.33,3.12a.79.79,0,0,0-.38.63h0l0,8.21h0a.76.76,0,0,0,.44.64l9.47,5.47a2.54,2.54,0,0,0,2.09.09l9.6-4.44a3.43,3.43,0,0,1,2.19-.13,59.08,59.08,0,0,0,7.45,1.77,1.8,1.8,0,0,1,1.39,1.34l1.2,6.33a1.48,1.48,0,0,0,1.4,1.16H403.9a1.48,1.48,0,0,0,1.4-1.16l1.2-6.33a1.8,1.8,0,0,1,1.39-1.34,59.08,59.08,0,0,0,7.45-1.77,3.43,3.43,0,0,1,2.19.13l9.6,4.44a2.54,2.54,0,0,0,2.09-.09l9.47-5.47a.76.76,0,0,0,.44-.62h0l0-8.23h0a.78.78,0,0,0-.37-.63L434.42,384a2.11,2.11,0,0,1,1.08-.44l12.61-.8a1.27,1.27,0,0,0,1.18-1.26l0-8.17v-7.07a1.29,1.29,0,0,0-1.18-1.26l-12.61-.79a2.17,2.17,0,0,1-1.1-.47l4.33-3.11a.78.78,0,0,0,.38-.63h0l0-8.22h0A.77.77,0,0,0,438.71,351.15Zm-63.9,21.26c.68-2.27,2.7-4.49,6.16-6.48,8.83-5.1,23.15-5.1,32,0,3.24,1.87,5.35,3.93,6.31,6-.75,2.59-2.85,5.07-6.31,7.06-8.83,5.1-23.15,5.1-32,0C377.72,377.14,375.67,374.83,374.81,372.41Z" style="fill:#fff;opacity:0.2"></path><path d="M360.11,376.49a2.32,2.32,0,0,0-1.71-1.13l-12.61-.8a1.26,1.26,0,0,1-1.17-1.25v-1.67l0,9.87a1.28,1.28,0,0,0,1.18,1.26l12.62.8a2.17,2.17,0,0,1,1.11.45l3.15-2.27a1,1,0,0,0,.14-1.54A18.81,18.81,0,0,1,360.11,376.49ZM354.74,360h0a.78.78,0,0,0,.38.64l4.35,3.14a2.4,2.4,0,0,0,.63-.69,18.93,18.93,0,0,1,2.68-3.72,1,1,0,0,0-.14-1.54l-7.51-5.4a.88.88,0,0,1-.37-.55Z" style="opacity:0.1"></path><path d="M413,360.56c-8.83-5.1-23.15-5.11-32,0-5.58,3.23-7.64,7.72-6.16,11.87.66-2.27,2.7-4.49,6.16-6.49,8.83-5.1,23.15-5.1,32,0,3.23,1.87,5.35,3.92,6.31,6C420.44,367.94,418.33,363.66,413,360.56Z" style="opacity:0.1"></path><path d="M449.3,373.47a1.31,1.31,0,0,1-1.17,1.1l-12.61.79a1.6,1.6,0,0,0-.63.17l0,8.22a1.67,1.67,0,0,1,.62-.18l12.62-.8a1.28,1.28,0,0,0,1.18-1.25Zm-10.14-21.68h0a.47.47,0,0,1,0,.25.57.57,0,0,1-.15.24,1.22,1.22,0,0,1-.17.15l-7.51,5.4a.69.69,0,0,0-.18.16,1,1,0,0,0-.23.46.87.87,0,0,0,0,.32l0,.16a1.25,1.25,0,0,0,.26.44l.14.16a19.43,19.43,0,0,1,2.54,3.55,2.49,2.49,0,0,0,.59.68l4.34-3.12a.82.82,0,0,0,.38-.63h0Zm0,36.06a.83.83,0,0,1-.45.58l-9.47,5.46a2.46,2.46,0,0,1-1.47.26v8.2a2.43,2.43,0,0,0,1.46-.25l9.47-5.47a.74.74,0,0,0,.44-.62Zm-61.85,1.46a3.16,3.16,0,0,0-.94.23L366.78,394a2.17,2.17,0,0,1-.86.18l0,8.19a2.16,2.16,0,0,0,.86-.17l9.59-4.45a3.25,3.25,0,0,1,.94-.21Zm27.78,10.08a1.45,1.45,0,0,1-1.16.62H390a1.45,1.45,0,0,1-.85-.31v8.21a1.46,1.46,0,0,0,.84.3H403.9a1.49,1.49,0,0,0,1.22-.7Z" style="fill:#BA68C8"></path><path d="M449.3,373.47a1.31,1.31,0,0,1-1.17,1.1l-12.61.79a1.6,1.6,0,0,0-.63.17l0,8.22a1.67,1.67,0,0,1,.62-.18l12.62-.8a1.28,1.28,0,0,0,1.18-1.25Zm-10.14-21.68h0a.47.47,0,0,1,0,.25.57.57,0,0,1-.15.24,1.22,1.22,0,0,1-.17.15l-7.51,5.4a.69.69,0,0,0-.18.16,1,1,0,0,0-.23.46.87.87,0,0,0,0,.32l0,.16a1.25,1.25,0,0,0,.26.44l.14.16a19.43,19.43,0,0,1,2.54,3.55,2.49,2.49,0,0,0,.59.68l4.34-3.12a.82.82,0,0,0,.38-.63h0Zm0,36.06a.83.83,0,0,1-.45.58l-9.47,5.46a2.46,2.46,0,0,1-1.47.26v8.2a2.43,2.43,0,0,0,1.46-.25l9.47-5.47a.74.74,0,0,0,.44-.62Zm-61.85,1.46a3.16,3.16,0,0,0-.94.23L366.78,394a2.17,2.17,0,0,1-.86.18l0,8.19a2.16,2.16,0,0,0,.86-.17l9.59-4.45a3.25,3.25,0,0,1,.94-.21Zm27.78,10.08a1.45,1.45,0,0,1-1.16.62H390a1.45,1.45,0,0,1-.85-.31v8.21a1.46,1.46,0,0,0,.84.3H403.9a1.49,1.49,0,0,0,1.22-.7Z" style="fill:#fff;opacity:0.7000000000000001"></path><path d="M427.15,345.59,417.56,350a3.6,3.6,0,0,1-2.2.13,55.8,55.8,0,0,0-7.45-1.77,1.84,1.84,0,0,1-1.39-1.35l-1.2-6.32a1.47,1.47,0,0,0-1.4-1.16H390a1.48,1.48,0,0,0-1.4,1.16l-1.2,6.32A1.81,1.81,0,0,1,386,348.4a55.66,55.66,0,0,0-7.44,1.77,3.59,3.59,0,0,1-2.2-.13l-9.6-4.45a2.54,2.54,0,0,0-2.09.1l-9.47,5.46a.71.71,0,0,0-.06,1.28l7.5,5.4a1,1,0,0,1,.14,1.54,19.17,19.17,0,0,0-2.68,3.71,2.34,2.34,0,0,1-1.7,1.14l-12.62.8a1.27,1.27,0,0,0-1.18,1.25v7a1.27,1.27,0,0,0,1.18,1.25l12.62.8a2.32,2.32,0,0,1,1.7,1.13,18.52,18.52,0,0,0,2.68,3.72,1,1,0,0,1-.14,1.54l-7.5,5.4a.71.71,0,0,0,.06,1.28l9.47,5.46a2.54,2.54,0,0,0,2.09.1l9.6-4.45a3.57,3.57,0,0,1,2.19-.13,55.8,55.8,0,0,0,7.45,1.77,1.81,1.81,0,0,1,1.39,1.35l1.2,6.32A1.48,1.48,0,0,0,390,400h13.92a1.48,1.48,0,0,0,1.4-1.16l1.2-6.32a1.84,1.84,0,0,1,1.39-1.35,55.8,55.8,0,0,0,7.45-1.77,3.6,3.6,0,0,1,2.2.13l9.59,4.45a2.57,2.57,0,0,0,2.1-.1l9.46-5.46a.7.7,0,0,0,.07-1.28l-7.51-5.4a1,1,0,0,1-.14-1.54,18.52,18.52,0,0,0,2.68-3.72,2.34,2.34,0,0,1,1.71-1.13l12.61-.8a1.27,1.27,0,0,0,1.18-1.25v-7a1.29,1.29,0,0,0-1.18-1.26l-12.61-.79a2.34,2.34,0,0,1-1.71-1.14,19.1,19.1,0,0,0-2.67-3.71,1,1,0,0,1,.13-1.54l7.51-5.4a.7.7,0,0,0-.07-1.28l-9.46-5.46A2.57,2.57,0,0,0,427.15,345.59Zm-14.2,15c8.84,5.1,8.84,13.36,0,18.46s-23.15,5.1-32,0-8.83-13.36,0-18.46S404.12,355.46,413,360.56Z" style="fill:#BA68C8"></path><g style="opacity:0.55"><path d="M427.15,345.59,417.56,350a3.6,3.6,0,0,1-2.2.13,55.8,55.8,0,0,0-7.45-1.77,1.84,1.84,0,0,1-1.39-1.35l-1.2-6.32a1.47,1.47,0,0,0-1.4-1.16H390a1.48,1.48,0,0,0-1.4,1.16l-1.2,6.32A1.81,1.81,0,0,1,386,348.4a55.66,55.66,0,0,0-7.44,1.77,3.59,3.59,0,0,1-2.2-.13l-9.6-4.45a2.54,2.54,0,0,0-2.09.1l-9.47,5.46a.71.71,0,0,0-.06,1.28l7.5,5.4a1,1,0,0,1,.14,1.54,19.17,19.17,0,0,0-2.68,3.71,2.34,2.34,0,0,1-1.7,1.14l-12.62.8a1.27,1.27,0,0,0-1.18,1.25v7a1.27,1.27,0,0,0,1.18,1.25l12.62.8a2.32,2.32,0,0,1,1.7,1.13,18.52,18.52,0,0,0,2.68,3.72,1,1,0,0,1-.14,1.54l-7.5,5.4a.71.71,0,0,0,.06,1.28l9.47,5.46a2.54,2.54,0,0,0,2.09.1l9.6-4.45a3.57,3.57,0,0,1,2.19-.13,55.8,55.8,0,0,0,7.45,1.77,1.81,1.81,0,0,1,1.39,1.35l1.2,6.32A1.48,1.48,0,0,0,390,400h13.92a1.48,1.48,0,0,0,1.4-1.16l1.2-6.32a1.84,1.84,0,0,1,1.39-1.35,55.8,55.8,0,0,0,7.45-1.77,3.6,3.6,0,0,1,2.2.13l9.59,4.45a2.57,2.57,0,0,0,2.1-.1l9.46-5.46a.7.7,0,0,0,.07-1.28l-7.51-5.4a1,1,0,0,1-.14-1.54,18.52,18.52,0,0,0,2.68-3.72,2.34,2.34,0,0,1,1.71-1.13l12.61-.8a1.27,1.27,0,0,0,1.18-1.25v-7a1.29,1.29,0,0,0-1.18-1.26l-12.61-.79a2.34,2.34,0,0,1-1.71-1.14,19.1,19.1,0,0,0-2.67-3.71,1,1,0,0,1,.13-1.54l7.51-5.4a.7.7,0,0,0-.07-1.28l-9.46-5.46A2.57,2.57,0,0,0,427.15,345.59Zm-14.2,15c8.84,5.1,8.84,13.36,0,18.46s-23.15,5.1-32,0-8.83-13.36,0-18.46S404.12,355.46,413,360.56Z" style="fill:#fff"></path><path d="M403.92,400.48H390a1.94,1.94,0,0,1-1.85-1.54l-1.2-6.32a1.38,1.38,0,0,0-1-1,55.68,55.68,0,0,1-7.51-1.79,3.1,3.1,0,0,0-1.86.11l-9.6,4.45a3,3,0,0,1-2.52-.12L355,388.83a1.17,1.17,0,0,1-.1-2.06l7.5-5.4a.52.52,0,0,0,.24-.38.59.59,0,0,0-.17-.47,19.64,19.64,0,0,1-2.75-3.8,1.83,1.83,0,0,0-1.32-.89l-12.62-.8a1.75,1.75,0,0,1-1.61-1.72v-7a1.75,1.75,0,0,1,1.61-1.72l12.62-.8a1.86,1.86,0,0,0,1.32-.89,19,19,0,0,1,2.75-3.8.59.59,0,0,0,.17-.47.52.52,0,0,0-.24-.38l-7.5-5.4a1.25,1.25,0,0,1-.57-1.06,1.23,1.23,0,0,1,.67-1l9.47-5.47a3,3,0,0,1,2.52-.11l9.6,4.45a3,3,0,0,0,1.86.1,56.85,56.85,0,0,1,7.51-1.78,1.38,1.38,0,0,0,1-1l1.2-6.32A1.93,1.93,0,0,1,390,339.1h13.92a1.94,1.94,0,0,1,1.86,1.54L407,347a1.36,1.36,0,0,0,1,1,57.23,57.23,0,0,1,7.51,1.78,3,3,0,0,0,1.86-.11l9.6-4.44a3,3,0,0,1,2.52.11l9.46,5.47a1.16,1.16,0,0,1,.11,2.06l-7.5,5.4a.53.53,0,0,0-.25.38.64.64,0,0,0,.18.47,19,19,0,0,1,2.74,3.8,1.85,1.85,0,0,0,1.33.89l12.61.8a1.76,1.76,0,0,1,1.62,1.72v7a1.76,1.76,0,0,1-1.62,1.72l-12.61.8a1.85,1.85,0,0,0-1.33.89,19.7,19.7,0,0,1-2.74,3.8.64.64,0,0,0-.18.47.55.55,0,0,0,.24.38l7.51,5.4a1.16,1.16,0,0,1-.11,2.06l-9.46,5.46a3,3,0,0,1-2.52.12l-9.6-4.45a3.1,3.1,0,0,0-1.86-.11,57.23,57.23,0,0,1-7.51,1.79,1.36,1.36,0,0,0-1,1l-1.2,6.32A1.94,1.94,0,0,1,403.92,400.48Zm-26.24-11.65a3.27,3.27,0,0,1,1,.14,56.16,56.16,0,0,0,7.39,1.75,2.32,2.32,0,0,1,1.77,1.72l1.2,6.33a1,1,0,0,0,.94.78h13.92a1,1,0,0,0,.95-.78l1.2-6.33a2.29,2.29,0,0,1,1.76-1.72,55.05,55.05,0,0,0,7.39-1.75,3.91,3.91,0,0,1,2.53.15l9.6,4.45a2.09,2.09,0,0,0,1.66-.08l9.47-5.47c.13-.07.21-.16.21-.24a.41.41,0,0,0-.19-.26l-7.5-5.39a1.46,1.46,0,0,1-.62-1.05,1.51,1.51,0,0,1,.41-1.18,18.69,18.69,0,0,0,2.62-3.63,2.77,2.77,0,0,1,2.08-1.37l12.61-.8a.82.82,0,0,0,.75-.79v-7a.81.81,0,0,0-.75-.79l-12.61-.8a2.77,2.77,0,0,1-2.08-1.37,18,18,0,0,0-2.62-3.63,1.52,1.52,0,0,1-.41-1.18,1.46,1.46,0,0,1,.62-1.05l7.5-5.4a.37.37,0,0,0,.19-.26c0-.07-.08-.16-.21-.24L429,346.09a2.09,2.09,0,0,0-1.66-.08l-9.6,4.45a4,4,0,0,1-2.53.15,57,57,0,0,0-7.39-1.76,2.27,2.27,0,0,1-1.76-1.71l-1.2-6.33a1,1,0,0,0-.95-.78H390a1,1,0,0,0-.94.78l-1.2,6.33a2.28,2.28,0,0,1-1.77,1.71,56.47,56.47,0,0,0-7.38,1.76,4,4,0,0,1-2.53-.15l-9.6-4.45a2.11,2.11,0,0,0-1.67.08l-9.46,5.46c-.13.08-.21.17-.21.24s.06.18.18.26l7.5,5.4a1.5,1.5,0,0,1,.63,1.05,1.53,1.53,0,0,1-.42,1.18,18.33,18.33,0,0,0-2.61,3.63,2.79,2.79,0,0,1-2.08,1.37l-12.62.8a.81.81,0,0,0-.74.79v7a.8.8,0,0,0,.74.79l12.62.8a2.79,2.79,0,0,1,2.08,1.37,18.93,18.93,0,0,0,2.61,3.63,1.48,1.48,0,0,1,.41,1.18,1.46,1.46,0,0,1-.62,1.05l-7.5,5.39c-.12.09-.19.19-.18.26s.08.17.21.24l9.46,5.47a2.11,2.11,0,0,0,1.67.08l9.59-4.45A3.8,3.8,0,0,1,377.68,388.83ZM397,383.3a33.09,33.09,0,0,1-16.22-3.88c-4.42-2.55-6.86-6-6.86-9.63s2.44-7.08,6.86-9.64c8.94-5.16,23.5-5.16,32.45,0,4.42,2.56,6.85,6,6.85,9.64s-2.43,7.08-6.85,9.63A33.13,33.13,0,0,1,397,383.3Zm0-26.1A32.22,32.22,0,0,0,381.2,361c-4.12,2.38-6.39,5.51-6.39,8.83s2.27,6.45,6.39,8.83c8.69,5,22.83,5,31.52,0,4.12-2.38,6.39-5.52,6.39-8.83s-2.27-6.45-6.39-8.83A32.19,32.19,0,0,0,397,357.2Z" style="fill:#fff"></path></g><path id="freepik--shadow--inject-72" d="M311.93,441.61a5.83,5.83,0,0,1-.59,0l-8.21-.86a5.39,5.39,0,0,1-3.69-2,5.47,5.47,0,0,1-1.15-4l.16-1.27c-.7-.25-1.38-.52-2-.8,0,0,0,0,0,0h-.09l-6.24,1.95a6.17,6.17,0,0,1-1.89.28,6.94,6.94,0,0,1-4.39-1.52l-4.19-3.49a4.88,4.88,0,0,1,.95-8.25l1.42-.71-3.85-.66a5.25,5.25,0,0,1-4.15-6.78l1.14-3.63a6,6,0,0,1,5.65-4.14l7,.27-.89-.95a4.91,4.91,0,0,1,1.78-8.07l6.57-2.63a6.55,6.55,0,0,1,2.45-.45,7,7,0,0,1,3.82,1.09l4.26,2.83h0c1.23-.21,2.49-.38,3.75-.49l1.27-2.47a6.29,6.29,0,0,1,5.5-3.34c.2,0,.4,0,.6,0l8.2.85a5.43,5.43,0,0,1,4.84,6.06l-.15,1.27c.69.26,1.37.53,2,.81,0,0,0,0,0,0h.09l6.23-2a6.29,6.29,0,0,1,1.9-.28,6.91,6.91,0,0,1,4.38,1.52l4.19,3.49a4.88,4.88,0,0,1-.95,8.25l-1.42.71,3.85.65a5.24,5.24,0,0,1,4.15,6.79l-1.14,3.63a6,6,0,0,1-5.65,4.14l-7-.28.9,1a4.93,4.93,0,0,1-1.78,8.07L333,438.8a6.55,6.55,0,0,1-2.45.45,7.05,7.05,0,0,1-3.82-1.09l-4.26-2.83h0c-1.22.21-2.47.37-3.74.49l-1.27,2.47A6.33,6.33,0,0,1,311.93,441.61Zm2.17-30.14a20,20,0,0,0-7.44,1.34c-2.88,1.15-4.07,2.62-4.22,3.53s.78,1.81,1.34,2.28c2.2,1.83,6.17,3,10.35,3a20.2,20.2,0,0,0,7.44-1.33c2.89-1.15,4.08-2.62,4.22-3.53s-.78-1.82-1.34-2.28C322.25,412.61,318.28,411.47,314.1,411.47Z" style="fill:#e0e0e0"></path><path d="M326.82,396a1.8,1.8,0,0,1-1.23-1.86l.38-3.12a1.44,1.44,0,0,0-1.28-1.6l-8.21-.86a2.29,2.29,0,0,0-2.12,1.15l-1.64,3.19a2.86,2.86,0,0,1-2.12,1.38c-1.44.11-2.86.29-4.26.53a4.16,4.16,0,0,1-2.65-.53l-4.42-2.93a3.09,3.09,0,0,0-2.57-.27l-6.57,2.63a1,1,0,0,0-.68.84h0v.08h0v6.71h0a1.07,1.07,0,0,0,.32.74l.38.41a3.48,3.48,0,0,1-1.81.56l-7.5-.3a2,2,0,0,0-1.9,1.33l-1.14,3.63a1.17,1.17,0,0,0,0,.45h0V415h0a1.24,1.24,0,0,0,1.06,1.19l5.82,1-2.27,1.14a1,1,0,0,0-.59.82h0v6.79h0a1,1,0,0,0,.41.75l4.19,3.49a3,3,0,0,0,2.52.5l6.39-2a4.52,4.52,0,0,1,2.72.17,32.36,32.36,0,0,0,3.43,1.27,1.77,1.77,0,0,1,.84.59v4.58h0a1.42,1.42,0,0,0,1.28,1.4l8.22.86a2.31,2.31,0,0,0,2.12-1.15l1.63-3.18a2.87,2.87,0,0,1,2.13-1.39c1.43-.11,2.85-.28,4.25-.53a4.21,4.21,0,0,1,2.65.53l4.42,2.94a3.13,3.13,0,0,0,2.57.26l6.58-2.63a1,1,0,0,0,.68-.88h0v-6.77h0a1.08,1.08,0,0,0-.33-.73l-.38-.41a3.51,3.51,0,0,1,1.81-.56l7.51.31a2,2,0,0,0,1.89-1.34l1.14-3.63a1.2,1.2,0,0,0,.06-.41h0v-6.75h0a1.21,1.21,0,0,0-1-1.25l-5.82-1,2.27-1.14a.92.92,0,0,0,.59-.83h0v-6.74h0a1,1,0,0,0-.41-.78L341.87,396a3,3,0,0,0-2.52-.5l-6.39,2a4.52,4.52,0,0,1-2.72-.18A30.11,30.11,0,0,0,326.82,396Zm-27.26,17a12.28,12.28,0,0,1,5.61-4.06c7.12-2.85,16.9-1.83,21.84,2.28a9.39,9.39,0,0,1,1.67,1.77,12.16,12.16,0,0,1-5.62,4.07c-7.12,2.86-16.9,1.84-21.84-2.28A9.45,9.45,0,0,1,299.56,413.05Z" style="fill:#BA68C8"></path><path d="M326.82,396a1.8,1.8,0,0,1-1.23-1.86l.38-3.12a1.44,1.44,0,0,0-1.28-1.6l-8.21-.86a2.29,2.29,0,0,0-2.12,1.15l-1.64,3.19a2.86,2.86,0,0,1-2.12,1.38c-1.44.11-2.86.29-4.26.53a4.16,4.16,0,0,1-2.65-.53l-4.42-2.93a3.09,3.09,0,0,0-2.57-.27l-6.57,2.63a1,1,0,0,0-.68.84h0v.08h0v6.71h0a1.07,1.07,0,0,0,.32.74l.38.41a3.48,3.48,0,0,1-1.81.56l-7.5-.3a2,2,0,0,0-1.9,1.33l-1.14,3.63a1.17,1.17,0,0,0,0,.45h0V415h0a1.24,1.24,0,0,0,1.06,1.19l5.82,1-2.27,1.14a1,1,0,0,0-.59.82h0v6.79h0a1,1,0,0,0,.41.75l4.19,3.49a3,3,0,0,0,2.52.5l6.39-2a4.52,4.52,0,0,1,2.72.17,32.36,32.36,0,0,0,3.43,1.27,1.77,1.77,0,0,1,.84.59v4.58h0a1.42,1.42,0,0,0,1.28,1.4l8.22.86a2.31,2.31,0,0,0,2.12-1.15l1.63-3.18a2.87,2.87,0,0,1,2.13-1.39c1.43-.11,2.85-.28,4.25-.53a4.21,4.21,0,0,1,2.65.53l4.42,2.94a3.13,3.13,0,0,0,2.57.26l6.58-2.63a1,1,0,0,0,.68-.88h0v-6.77h0a1.08,1.08,0,0,0-.33-.73l-.38-.41a3.51,3.51,0,0,1,1.81-.56l7.51.31a2,2,0,0,0,1.89-1.34l1.14-3.63a1.2,1.2,0,0,0,.06-.41h0v-6.75h0a1.21,1.21,0,0,0-1-1.25l-5.82-1,2.27-1.14a.92.92,0,0,0,.59-.83h0v-6.74h0a1,1,0,0,0-.41-.78L341.87,396a3,3,0,0,0-2.52-.5l-6.39,2a4.52,4.52,0,0,1-2.72-.18A30.11,30.11,0,0,0,326.82,396Zm-27.26,17a12.28,12.28,0,0,1,5.61-4.06c7.12-2.85,16.9-1.83,21.84,2.28a9.39,9.39,0,0,1,1.67,1.77,12.16,12.16,0,0,1-5.62,4.07c-7.12,2.86-16.9,1.84-21.84-2.28A9.45,9.45,0,0,1,299.56,413.05Z" style="fill:#fff;opacity:0.2"></path><path d="M287.69,412.28a2.43,2.43,0,0,0-1.74-1.66l-7.15-1.23a1.22,1.22,0,0,1-1.05-1.11V415a1.24,1.24,0,0,0,1.06,1.18l5.82,1,3-1.51a1.42,1.42,0,0,0,.6-1.93A10,10,0,0,1,287.69,412.28Zm1.75-10.9h0a1.13,1.13,0,0,0,.31.74l.39.4a2.8,2.8,0,0,0,.62-.47,14.75,14.75,0,0,1,1.8-1.6,1.27,1.27,0,0,0,.18-1.93l-3-3.17a1,1,0,0,1-.32-.73Z" style="opacity:0.1"></path><path d="M305.17,402.23c-6.14,2.46-8.31,7-5.6,10.82a12.19,12.19,0,0,1,5.6-4.06c7.12-2.85,16.9-1.84,21.84,2.28a9,9,0,0,1,1.66,1.77c1.91-2.73,1.47-5.94-1.65-8.53C322.07,400.39,312.3,399.38,305.17,402.23Z" style="opacity:0.1"></path><path d="M316.2,425.61a2.4,2.4,0,0,0-.68.79l-1.64,3.19a2.29,2.29,0,0,1-1.21,1v6.77a2.24,2.24,0,0,0,1.21-1l1.64-3.19a2.53,2.53,0,0,1,.7-.77Zm22.59-.9h0a1,1,0,0,1-.68.88l-6.56,2.63a2.94,2.94,0,0,1-1.72.07v6.76a3.05,3.05,0,0,0,1.73-.07l6.57-2.63a1,1,0,0,0,.68-.87Zm-43.6-2.83-6.3,2a2.78,2.78,0,0,1-1.59,0v6.74a2.89,2.89,0,0,0,1.59.05l6.32-2Zm55.31-10.69a2,2,0,0,1-.07.4l-1.13,3.63a2,2,0,0,1-1.9,1.33l-7.5-.3a3,3,0,0,0-1.18.24v6.76a3.18,3.18,0,0,1,1.17-.24l7.51.31a2.05,2.05,0,0,0,1.9-1.34l1.12-3.63a1,1,0,0,0,.07-.41Zm-4-10.95a.86.86,0,0,1-.06.23.74.74,0,0,1-.22.35,1.55,1.55,0,0,1-.34.23l-5.27,2.65a.93.93,0,0,0-.31.23,1.4,1.4,0,0,0-.44,1.07l0,.27a2.65,2.65,0,0,0,.12.37,8.69,8.69,0,0,1,.54,1.41,2.45,2.45,0,0,0,1.75,1.68l1.32.22,2.27-1.13a1,1,0,0,0,.59-.84h0Z" style="fill:#BA68C8"></path><path d="M316.2,425.61a2.4,2.4,0,0,0-.68.79l-1.64,3.19a2.29,2.29,0,0,1-1.21,1v6.77a2.24,2.24,0,0,0,1.21-1l1.64-3.19a2.53,2.53,0,0,1,.7-.77Zm22.59-.9h0a1,1,0,0,1-.68.88l-6.56,2.63a2.94,2.94,0,0,1-1.72.07v6.76a3.05,3.05,0,0,0,1.73-.07l6.57-2.63a1,1,0,0,0,.68-.87Zm-43.6-2.83-6.3,2a2.78,2.78,0,0,1-1.59,0v6.74a2.89,2.89,0,0,0,1.59.05l6.32-2Zm55.31-10.69a2,2,0,0,1-.07.4l-1.13,3.63a2,2,0,0,1-1.9,1.33l-7.5-.3a3,3,0,0,0-1.18.24v6.76a3.18,3.18,0,0,1,1.17-.24l7.51.31a2.05,2.05,0,0,0,1.9-1.34l1.12-3.63a1,1,0,0,0,.07-.41Zm-4-10.95a.86.86,0,0,1-.06.23.74.74,0,0,1-.22.35,1.55,1.55,0,0,1-.34.23l-5.27,2.65a.93.93,0,0,0-.31.23,1.4,1.4,0,0,0-.44,1.07l0,.27a2.65,2.65,0,0,0,.12.37,8.69,8.69,0,0,1,.54,1.41,2.45,2.45,0,0,0,1.75,1.68l1.32.22,2.27-1.13a1,1,0,0,0,.59-.84h0Z" style="fill:#fff;opacity:0.7000000000000001"></path><path d="M339.35,395.47l-6.39,2a4.52,4.52,0,0,1-2.72-.18,30.11,30.11,0,0,0-3.42-1.26,1.8,1.8,0,0,1-1.23-1.86l.38-3.12a1.44,1.44,0,0,0-1.28-1.6l-8.21-.86a2.29,2.29,0,0,0-2.12,1.15l-1.64,3.19a2.86,2.86,0,0,1-2.12,1.38c-1.44.11-2.86.29-4.26.53a4.16,4.16,0,0,1-2.65-.53l-4.42-2.93a3.09,3.09,0,0,0-2.57-.27l-6.57,2.63a.93.93,0,0,0-.36,1.61l3,3.17a1.26,1.26,0,0,1-.18,1.92,17.72,17.72,0,0,0-1.8,1.61,3.69,3.69,0,0,1-2.43,1l-7.5-.3a2,2,0,0,0-1.9,1.33l-1.14,3.63a1.24,1.24,0,0,0,1,1.64l7.14,1.22a2.45,2.45,0,0,1,1.74,1.68,10.3,10.3,0,0,0,.54,1.42,1.42,1.42,0,0,1-.6,1.93l-5.28,2.65a.89.89,0,0,0-.18,1.59l4.2,3.49a3,3,0,0,0,2.51.5l6.39-2A4.52,4.52,0,0,1,298,422a32.34,32.34,0,0,0,3.43,1.26,1.81,1.81,0,0,1,1.23,1.86l-.38,3.12a1.42,1.42,0,0,0,1.28,1.6l8.21.86a2.31,2.31,0,0,0,2.12-1.15l1.63-3.19a2.86,2.86,0,0,1,2.13-1.38c1.43-.11,2.85-.29,4.25-.53a4.14,4.14,0,0,1,2.65.53L329,428a3.12,3.12,0,0,0,2.58.27l6.57-2.63a.93.93,0,0,0,.35-1.61l-3-3.17a1.27,1.27,0,0,1,.18-1.92,17.72,17.72,0,0,0,1.8-1.61,3.74,3.74,0,0,1,2.43-1l7.51.3a2,2,0,0,0,1.9-1.33l1.13-3.63a1.24,1.24,0,0,0-1-1.64l-7.14-1.22a2.45,2.45,0,0,1-1.75-1.68,10.23,10.23,0,0,0-.53-1.42,1.42,1.42,0,0,1,.6-1.93l5.27-2.65a.89.89,0,0,0,.18-1.59L341.87,396A3,3,0,0,0,339.35,395.47Zm-12.34,9c4.94,4.11,3.17,9.75-3.95,12.6s-16.9,1.84-21.84-2.28-3.17-9.75,3.95-12.61S322.07,400.39,327,404.51Z" style="fill:#BA68C8"></path><g style="opacity:0.55"><path d="M339.35,395.47l-6.39,2a4.52,4.52,0,0,1-2.72-.18,30.11,30.11,0,0,0-3.42-1.26,1.8,1.8,0,0,1-1.23-1.86l.38-3.12a1.44,1.44,0,0,0-1.28-1.6l-8.21-.86a2.29,2.29,0,0,0-2.12,1.15l-1.64,3.19a2.86,2.86,0,0,1-2.12,1.38c-1.44.11-2.86.29-4.26.53a4.16,4.16,0,0,1-2.65-.53l-4.42-2.93a3.09,3.09,0,0,0-2.57-.27l-6.57,2.63a.93.93,0,0,0-.36,1.61l3,3.17a1.26,1.26,0,0,1-.18,1.92,17.72,17.72,0,0,0-1.8,1.61,3.69,3.69,0,0,1-2.43,1l-7.5-.3a2,2,0,0,0-1.9,1.33l-1.14,3.63a1.24,1.24,0,0,0,1,1.64l7.14,1.22a2.45,2.45,0,0,1,1.74,1.68,10.3,10.3,0,0,0,.54,1.42,1.42,1.42,0,0,1-.6,1.93l-5.28,2.65a.89.89,0,0,0-.18,1.59l4.2,3.49a3,3,0,0,0,2.51.5l6.39-2A4.52,4.52,0,0,1,298,422a32.34,32.34,0,0,0,3.43,1.26,1.81,1.81,0,0,1,1.23,1.86l-.38,3.12a1.42,1.42,0,0,0,1.28,1.6l8.21.86a2.31,2.31,0,0,0,2.12-1.15l1.63-3.19a2.86,2.86,0,0,1,2.13-1.38c1.43-.11,2.85-.29,4.25-.53a4.14,4.14,0,0,1,2.65.53L329,428a3.12,3.12,0,0,0,2.58.27l6.57-2.63a.93.93,0,0,0,.35-1.61l-3-3.17a1.27,1.27,0,0,1,.18-1.92,17.72,17.72,0,0,0,1.8-1.61,3.74,3.74,0,0,1,2.43-1l7.51.3a2,2,0,0,0,1.9-1.33l1.13-3.63a1.24,1.24,0,0,0-1-1.64l-7.14-1.22a2.45,2.45,0,0,1-1.75-1.68,10.23,10.23,0,0,0-.53-1.42,1.42,1.42,0,0,1,.6-1.93l5.27-2.65a.89.89,0,0,0,.18-1.59L341.87,396A3,3,0,0,0,339.35,395.47Zm-12.34,9c4.94,4.11,3.17,9.75-3.95,12.6s-16.9,1.84-21.84-2.28-3.17-9.75,3.95-12.61S322.07,400.39,327,404.51Z" style="fill:#fff"></path><path d="M311.93,431.32h-.23l-8.21-.86a2,2,0,0,1-1.37-.74,2,2,0,0,1-.42-1.5l.38-3.12a1.24,1.24,0,0,0-.83-1.24,34.08,34.08,0,0,1-3.49-1.28,3.91,3.91,0,0,0-2.31-.16l-6.4,2a3.58,3.58,0,0,1-3.05-.61l-4.2-3.49a1.45,1.45,0,0,1,.3-2.54l5.27-2.65a.87.87,0,0,0,.34-1.18,10.5,10.5,0,0,1-.57-1.5,1.88,1.88,0,0,0-1.29-1.27L278.71,410a1.82,1.82,0,0,1-1.46-2.38l1.14-3.63a2.55,2.55,0,0,1,2.47-1.74l7.51.31a3.05,3.05,0,0,0,2-.87,18.68,18.68,0,0,1,1.86-1.65.79.79,0,0,0,.32-.55.71.71,0,0,0-.21-.53l-3-3.17a1.5,1.5,0,0,1,.56-2.53l6.57-2.63a3.7,3.7,0,0,1,3.11.32l4.42,2.93a3.64,3.64,0,0,0,2.23.45,43,43,0,0,1,4.31-.54,2.3,2.3,0,0,0,1.66-1.07l1.64-3.19a2.87,2.87,0,0,1,2.69-1.46l8.21.86a2,2,0,0,1,1.36.75,2,2,0,0,1,.43,1.49l-.38,3.12a1.24,1.24,0,0,0,.83,1.24,32.48,32.48,0,0,1,3.48,1.28,3.94,3.94,0,0,0,2.32.16l6.39-2a3.6,3.6,0,0,1,3.06.61l4.19,3.49a1.45,1.45,0,0,1-.29,2.54l-5.27,2.65a.86.86,0,0,0-.34,1.18,10.44,10.44,0,0,1,.56,1.5,1.88,1.88,0,0,0,1.29,1.27l7.15,1.22a1.87,1.87,0,0,1,1.28.85,1.82,1.82,0,0,1,.17,1.53l-1.14,3.63a2.57,2.57,0,0,1-2.46,1.74l-7.51-.31a3.12,3.12,0,0,0-2,.87,18.68,18.68,0,0,1-1.85,1.65.76.76,0,0,0-.32.55.66.66,0,0,0,.2.53l3,3.17a1.5,1.5,0,0,1-.56,2.53l-6.57,2.63a3.67,3.67,0,0,1-3.1-.32l-4.42-2.93a3.67,3.67,0,0,0-2.24-.45,43,43,0,0,1-4.31.54,2.3,2.3,0,0,0-1.66,1.08l-1.63,3.18A2.9,2.9,0,0,1,311.93,431.32ZM296.3,421.15a5.13,5.13,0,0,1,1.92.36,31.79,31.79,0,0,0,3.37,1.24,2.39,2.39,0,0,1,1.63,2.48l-.38,3.12a.86.86,0,0,0,.77,1l8.21.86a1.74,1.74,0,0,0,1.55-.84l1.63-3.19a3.45,3.45,0,0,1,2.6-1.7,40.63,40.63,0,0,0,4.19-.52,4.79,4.79,0,0,1,3.07.62l4.42,2.94a2.56,2.56,0,0,0,2,.21l6.57-2.64c.18-.07.3-.17.32-.28a.45.45,0,0,0-.17-.4l-3-3.17a1.82,1.82,0,0,1-.51-1.4,1.92,1.92,0,0,1,.76-1.37,16.4,16.4,0,0,0,1.74-1.55,4.21,4.21,0,0,1,2.87-1.2l7.5.3a1.46,1.46,0,0,0,1.33-.93l1.13-3.63a.67.67,0,0,0-.55-.91l-7.14-1.22a3,3,0,0,1-2.2-2.08,9.29,9.29,0,0,0-.5-1.33,2,2,0,0,1,.86-2.7l5.27-2.64c.17-.08.27-.19.28-.29s-.06-.23-.2-.35l-4.2-3.49a2.45,2.45,0,0,0-2-.39l-6.39,2a5.08,5.08,0,0,1-3.12-.19,32.43,32.43,0,0,0-3.36-1.24,2.37,2.37,0,0,1-1.63-2.48l.38-3.12a.86.86,0,0,0-.77-1l-8.21-.86a1.76,1.76,0,0,0-1.55.84l-1.64,3.19a3.42,3.42,0,0,1-2.59,1.7,41.18,41.18,0,0,0-4.2.52,4.74,4.74,0,0,1-3.07-.62L299,391.87a2.56,2.56,0,0,0-2-.22l-6.57,2.64a.48.48,0,0,0-.32.28.51.51,0,0,0,.17.4l3,3.17a1.82,1.82,0,0,1,.51,1.4,1.92,1.92,0,0,1-.76,1.37,17.45,17.45,0,0,0-1.74,1.55,4.14,4.14,0,0,1-2.86,1.2l-7.51-.3a1.43,1.43,0,0,0-1.32.93l-1.14,3.63a.7.7,0,0,0,0,.59.73.73,0,0,0,.5.32l7.14,1.22a3,3,0,0,1,2.2,2.08,8.28,8.28,0,0,0,.51,1.33,2,2,0,0,1-.87,2.7l-5.27,2.64c-.16.08-.27.19-.28.29a.48.48,0,0,0,.21.35l4.19,3.49a2.44,2.44,0,0,0,2,.39l6.39-2A4.09,4.09,0,0,1,296.3,421.15Zm17.86-1.86c-5.12,0-10.16-1.4-13.31-4-2.25-1.88-3.3-4.2-2.93-6.52.46-2.88,3-5.46,7-7.07,7.29-2.92,17.34-1.85,22.42,2.37h0c2.26,1.88,3.3,4.2,2.93,6.52-.45,2.88-3,5.46-7,7.07A24.93,24.93,0,0,1,314.16,419.29Zm0-18.11a23.69,23.69,0,0,0-8.73,1.58c-3.64,1.45-5.94,3.71-6.34,6.18-.3,1.93.58,3.82,2.54,5.45,4.79,4,14.32,5,21.26,2.19,3.63-1.45,5.94-3.71,6.33-6.18.31-1.93-.57-3.82-2.53-5.45C323.7,402.49,319,401.18,314.12,401.18Z" style="fill:#fff"></path></g></g></g><g id="freepik--Arrow--inject-72"><g id="freepik--arrow--inject-72"><path d="M147.45,260,279.2,183.9a13.86,13.86,0,0,1,9.51-1.12L396.94,215.1l-12.26,7.08-94-28.06a13.8,13.8,0,0,0-9.51,1.11l-116.68,67.4a4.74,4.74,0,0,0-1.57,6.9l39.62,57.79L190,334.59l-44.18-67.66A4.88,4.88,0,0,1,147.45,260Z" style="fill:#BA68C8"></path><path d="M147.45,260,279.2,183.9a13.86,13.86,0,0,1,9.51-1.12L396.94,215.1l-12.26,7.08-94-28.06a13.8,13.8,0,0,0-9.51,1.11l-116.68,67.4a4.74,4.74,0,0,0-1.57,6.9l39.62,57.79L190,334.59l-44.18-67.66A4.88,4.88,0,0,1,147.45,260Z" style="fill:#fff;opacity:0.75"></path><polygon points="117.58 405.74 448 214.97 464.94 224.75 469.18 188.07 405.63 190.51 422.58 200.3 92.17 391.06 117.58 405.74" style="fill:#BA68C8"></polygon><polygon points="117.58 405.74 448 214.97 464.94 224.75 469.18 188.07 405.63 190.51 422.58 200.3 92.17 391.06 117.58 405.74" style="fill:#fff;opacity:0.5"></polygon></g></g><g id="freepik--character-2--inject-72"><ellipse id="freepik--shadow--inject-72" cx="87.81" cy="378.04" rx="64.31" ry="37.13" style="opacity:0.1"></ellipse><g id="freepik--Character--inject-72"><g id="freepik--Bottom--inject-72"><path d="M110.19,395.37l7.09-14,14.28,8.36L114,410.53s-8.73-.81-10.13-5.36S107.78,396.88,110.19,395.37Z" style="fill:#c8856a"></path><path d="M100.13,400.86a7.29,7.29,0,0,0-2,2.16c-.58.85-.4,5-1,6.91s-1,2.43-1.89,4.84c-1,2.67-2.9,5.1-.77,12s5.53,10.12,8.4,11.8a7.54,7.54,0,0,0,3.46.84s3.77-1.43,3.19-3.65S100.13,400.86,100.13,400.86Z" style="fill:#263238"></path><path d="M116.64,408.38a8,8,0,0,1-1.49,2.37,18.8,18.8,0,0,0-2.44,6.85C110.49,428.45,114.8,434,109,438c-1.7,1.06-5.21.77-10.54-6.07-2.72-3.49-4.28-10.67-3.22-13.93s2.52-5.37,3.21-7.87.33-7.16,1.71-9.31a10.13,10.13,0,0,1,3.38-2.92c1-.62,3.3-1.45,4.36-2.05s1.64-1.29,2.32-.52L109,396.88c-1.9,2.63-1.37,3-1.33,4.42a21.66,21.66,0,0,1-.71,4.47c1.36-1.71,1.91-3.2,3.39-2.94s1.65.19,3.77,2.18S116.74,407.76,116.64,408.38Z" style="fill:#455a64"></path><path d="M98.43,432c-2.72-3.49-4.28-10.67-3.22-13.93a29.92,29.92,0,0,1,1.26-3.15c0,.22-.12.45-.15.63-.06.43-.12.85-.16,1.27a9.84,9.84,0,0,0,.54,4.93c.62,1.35,2,4.74,3.86,4.81,1,.05,1.91-1,2.3-2.12.17-.49.45-1.8.45-1.8a16.13,16.13,0,0,1,4.74,1.93c2.65,1.75,2.55,2.14,2.55,2.14a6.91,6.91,0,0,0-.08,2.33,5.76,5.76,0,0,0,1,2.31,3.75,3.75,0,0,0,.68.54A7.09,7.09,0,0,1,109,438C107.27,439.1,103.76,438.81,98.43,432Z" style="fill:#37474f"></path><path d="M112.71,417.6a36.68,36.68,0,0,0-.68,8.68c-1,2.77-1.87,2.69-2,1.25s1.8-7.41,3.23-12.35C113.05,416,112.87,416.82,112.71,417.6Z" style="fill:#37474f"></path><path d="M106.11,400.21a6,6,0,0,1,1.06-4c.26-.12.51-.24.7-.35,1.14-.65,1.64-1.29,2.32-.52L109,396.88c-1.9,2.63-1.37,3-1.33,4.42a21.66,21.66,0,0,1-.71,4.47c-1.1,4.71-2.11,6.28-2.63,10.73s.37,7.44-.26,7.69-1.9-.25-2.13-3.82,1.34-9.56,2.45-12.4S106.34,402.11,106.11,400.21Z" style="fill:#37474f"></path><path d="M103,422.92a.46.46,0,0,0,.23.12,10.62,10.62,0,0,1,7.11,4.17.45.45,0,1,0,.68-.58,11.5,11.5,0,0,0-7.61-4.46.45.45,0,0,0-.41.75Z" style="fill:#ebebeb"></path><path d="M103.56,419.21a.4.4,0,0,0,.22.12,11.91,11.91,0,0,1,7.49,4.55.44.44,0,0,0,.64.05.45.45,0,0,0,0-.64,12.82,12.82,0,0,0-8-4.85.46.46,0,0,0-.54.34A.45.45,0,0,0,103.56,419.21Z" style="fill:#ebebeb"></path><path d="M103.48,415.12a.48.48,0,0,0,.24.14,13.51,13.51,0,0,1,8.38,5.11.5.5,0,0,0,.76-.66,14.54,14.54,0,0,0-8.91-5.43.5.5,0,0,0-.47.84Z" style="fill:#ebebeb"></path><path d="M104.07,411.63a.47.47,0,0,0,.24.13,13.21,13.21,0,0,1,8.19,5,.49.49,0,0,0,.69.06.5.5,0,0,0,.06-.7,14.24,14.24,0,0,0-8.72-5.31.5.5,0,0,0-.59.37A.51.51,0,0,0,104.07,411.63Z" style="fill:#ebebeb"></path><path d="M105.35,408.23a.47.47,0,0,0,.24.13,13.21,13.21,0,0,1,8.19,5,.49.49,0,0,0,.75-.64,14.21,14.21,0,0,0-8.72-5.32.5.5,0,0,0-.59.37A.51.51,0,0,0,105.35,408.23Z" style="fill:#ebebeb"></path><polygon points="114.04 396.49 123.29 404.05 128.51 407.33 122.55 418.62 105.73 410.56 114.04 396.49" style="fill:#c8856a"></polygon><path d="M95.2,346s33.65-5.58,48.05-5.49c14.7.1,16.06,11.13,12.38,17.89-7,12.93-31.52,40.37-31.52,40.37s-8.22-3.76-10.75-10.88L119,375.1l-17.57,5.62-9-6-.74-4.58Z" style="fill:#BA68C8"></path><path d="M95.2,346s33.65-5.58,48.05-5.49c14.7.1,16.06,11.13,12.38,17.89-7,12.93-31.52,40.37-31.52,40.37s-8.22-3.76-10.75-10.88L119,375.1l-17.57,5.62-9-6-.74-4.58Z" style="opacity:0.4"></path><path d="M95.2,346l-58.26,9.7s-.57,13.94,4.91,26.43a28.47,28.47,0,0,0,21.8,16.64,163.42,163.42,0,0,0,17.62,1.44,44.32,44.32,0,0,0,9.21,5.42C95.11,407.48,115.4,416,115.4,416s5.7-4.83,5.14-14.88l-19.16-20.38c-4.34-5.28-5.86-7-8.27-8.18C96.81,365.39,95.61,353.88,95.2,346Z" style="fill:#BA68C8"></path><path d="M95.2,346l-58.26,9.7s-.57,13.94,4.91,26.43a28.47,28.47,0,0,0,21.8,16.64,163.42,163.42,0,0,0,17.62,1.44,44.32,44.32,0,0,0,9.21,5.42C95.11,407.48,115.4,416,115.4,416s5.7-4.83,5.14-14.88l-19.16-20.38c-4.34-5.28-5.86-7-8.27-8.18C96.81,365.39,95.61,353.88,95.2,346Z" style="opacity:0.30000000000000004"></path><g style="opacity:0.30000000000000004"><path d="M121.88,364.2a127.28,127.28,0,0,0-7.42,12.33L119,375.1c5.06-12.05,6.1-15.57,14.18-21.22C133.13,353.88,127.33,356.07,121.88,364.2Z"></path><path d="M77,393.46s-.07,3,4.29,6.76a44.32,44.32,0,0,0,9.21,5.42C95.11,407.48,115.4,416,115.4,416s1.11-.51,2.68-3.5c-5.24-1.24-22.52-8-28.1-10.36C80,397.91,77,393.46,77,393.46Z"></path><path d="M98.48,377.31l2.9,3.41,2.81-.92s-5-5.42-8.2-8.28a11.08,11.08,0,0,0-1.84-1.44c1.62-4.26,1.56-11.25,1.56-11.25a22.56,22.56,0,0,1-4.25,10.22,18.7,18.7,0,0,0-8.09-.09c-5.63.94-22,3.72-22,3.72s15.66-1.41,23.81-1.72S96.52,375,98.48,377.31Z"></path></g><path d="M149.71,413.21c4,1.56,6.41,3.13,8.23,5.52s2.39,4.81.65,7.7-4.92,6.3-8.71,6.08-6.13-1.17-9.64-3.08Z" style="fill:#263238"></path><path d="M118.08,416.56c0,1.18,5,3.55,10.14,6,5.57,2.65,6.94,4.38,11.48,6.62,5.2,2.55,7.17,2.7,11.2,1.58s9-6.89,5.54-12.19c-2.83-4.33-6.48-5.51-12-7a102.85,102.85,0,0,1-13-4.19c-4-1.56-7.32-4.35-8.14-3.38.57.27,4.76,2.86,4,3.57-.19.36-.79.25-1.83-.18a1.7,1.7,0,0,0-1.43-.07,2.76,2.76,0,0,0-1,1.25,32.86,32.86,0,0,0-1.26,3.18c-.31.73-.18.3-.47,1a8.15,8.15,0,0,0-.86,2.84c0,.46.39.61.74.83s.85.49,1.18.75c.13.1.37.44.3.62s-.85.15-1.15,0-.81-.25-1.18-.39S119,417,118.08,416.56Z" style="fill:#455a64"></path><path d="M137.92,428.35c.75.37,5.46,2.56,6.94,1.25s-2.18-3.69-2.18-3.69-.58-3.56,3.72-8.79c.74.58,3.84.55,3.8-1.27s-5.24-4.06-5.31-4.1c5.31,1.43,8.81,2.65,11.55,6.85,3.46,5.3-1.51,11.07-5.54,12.19s-6,1-11.2-1.58C139.18,429,138.38,428.62,137.92,428.35Z" style="fill:#37474f"></path><path d="M143.19,425.55c2,.66.62,2.45-2.26,1.87-4.32-.87-7.91-3.32-12.71-4.83-5.19-2.48-10.48-4.79-10.14-6.1.93.35,2.92,1.17,2.92,1.17.39.17,1.39.54,1.39.54,3.93,1.7,8.29,4.44,12.55,5.59C138.69,424.81,141.22,424.9,143.19,425.55Z" style="fill:#37474f"></path><path d="M146.11,417.8c-1.8-1-2.11-1.93-5.64-3.55s-9.5-5.09-13.18-7.24a45.26,45.26,0,0,1-4-3c.61-.7,2.86-.06,5.1,1.36s3.62,2.32,5.85,3.48c4.33,2.61,9.27,4.36,11.75,5.95S147.91,418.84,146.11,417.8Z" style="fill:#37474f"></path><path d="M146.38,417.32a.57.57,0,0,1-.11.16,15.75,15.75,0,0,0-3.36,8.71.52.52,0,0,1-.5.48.43.43,0,0,1-.4-.5,16.56,16.56,0,0,1,3.67-9.37.41.41,0,0,1,.63,0A.55.55,0,0,1,146.38,417.32Z" style="fill:#f0f0f0"></path><path d="M142.89,414.77a1.3,1.3,0,0,1-.1.15,21.53,21.53,0,0,0-4.16,10.28.53.53,0,0,1-.51.47.43.43,0,0,1-.38-.52,22.23,22.23,0,0,1,4.44-10.89.42.42,0,0,1,.63,0A.52.52,0,0,1,142.89,414.77Z" style="fill:#f0f0f0"></path><path d="M135.2,424.83a.53.53,0,0,1-.42.32.43.43,0,0,1-.43-.47c.21-6.31,4.27-12.23,4.46-12.43a.41.41,0,0,1,.63,0,.55.55,0,0,1,0,.7c0,.05-4,5.83-4.15,11.69A.65.65,0,0,1,135.2,424.83Z" style="fill:#f0f0f0"></path><path d="M132,422.77a.49.49,0,0,1-.41.31.42.42,0,0,1-.44-.46,18.62,18.62,0,0,1,4.7-11.79.42.42,0,0,1,.63,0,.54.54,0,0,1-.08.7,17.84,17.84,0,0,0-4.35,11A.54.54,0,0,1,132,422.77Z" style="fill:#f0f0f0"></path><path d="M127.79,421a.5.5,0,0,1-.4.31.41.41,0,0,1-.45-.45c0-6.56,4.64-11.63,4.84-11.84a.43.43,0,0,1,.64,0,.54.54,0,0,1-.07.7s-4.49,5-4.51,11A.79.79,0,0,1,127.79,421Z" style="fill:#ebebeb"></path></g><g id="freepik--Top--inject-72"><g id="freepik--Arm--inject-72"><path d="M91.94,294.93c2.89,4.07,11.43,20.63,11.43,20.63,3-3.65,6.54-8.15,9.54-12.05,4-5.11,5.56-6.2,7.51-14.05A24.13,24.13,0,0,1,123,284a17.16,17.16,0,0,0,1.91-5.82c.08-1,2.64-.78,3.2,2.42.37,1.66-.14,3.31-.09,5,0,.5-.24,1.58.39,1.47,3.79-.65,6.48-5.06,11-8.25,1.62-1.14,5.8-2.4,6.76,0,.09.58-.32,1-.46,1.51a.74.74,0,0,0,0,.21,4.3,4.3,0,0,0,.09.72c.13.47.34.92.45,1.4a3.47,3.47,0,0,1-.2,2.18,8.72,8.72,0,0,0-.71,1.56,5.49,5.49,0,0,1-.32,3,12.49,12.49,0,0,1-1.39,2.36,8.62,8.62,0,0,0-.73,1.64,9.36,9.36,0,0,1-1.79,2.51A38.38,38.38,0,0,1,133,303c-1.38.86-2.86,1.58-4.16,2.57a12.47,12.47,0,0,0-2.56,2.57,26.65,26.65,0,0,0-2.29,4l0,.08c-5.82,10.76-6.26,14.69-12.47,23.25-5.25,6.87-11.54,3.79-18.4-5.29-8.72-11.55-12.8-18.36-12.8-18.36l-.8-28.72C85.49,284.94,89.05,290.85,91.94,294.93Z" style="fill:#c8856a"></path><path d="M128.05,289.8a10.92,10.92,0,0,1-2.56,9.44C128.94,298.19,130.23,293.67,128.05,289.8Z" style="fill:#af6152"></path><path d="M78.85,282.5c5.62.8,9,4.1,14.3,13.1,5.91,10.07,10.2,19.47,10.2,19.47l5.5-6.35c-1.77,1.08-1.25,9,1.75,12.52a12.19,12.19,0,0,0,7.25,4,77.37,77.37,0,0,1-5.25,9.23c-2.77,4-4.59,5.08-7.06,5.14s-6.44-.15-11.81-7.22c-5.92-7.79-14.14-20.56-14.14-20.56Z" style="fill:#BA68C8"></path><path d="M78.85,282.5c5.62.8,9,4.1,14.3,13.1,5.91,10.07,10.2,19.47,10.2,19.47l5.5-6.35c-1.77,1.08-1.25,9,1.75,12.52a12.19,12.19,0,0,0,7.25,4,77.37,77.37,0,0,1-5.25,9.23c-2.77,4-4.59,5.08-7.06,5.14s-6.44-.15-11.81-7.22c-5.92-7.79-14.14-20.56-14.14-20.56Z" style="fill:#fff;opacity:0.55"></path><path d="M103.35,315.07c-2.9,3.38-4.86,9.21-4.57,12.18-1.35-3.44-.27-9.4,3.42-13.78Z" style="fill:#BA68C8;opacity:0.35000000000000003"></path><path d="M115.51,329.54a12.33,12.33,0,0,1-2.08-.58,11.69,11.69,0,0,1-3.73-2.3,12.68,12.68,0,0,1-3.93-7.21c0-.14-.18-.09-.16,0a11.73,11.73,0,0,0,3.92,7.88,12.65,12.65,0,0,0,3.93,2.31,14.13,14.13,0,0,0,1.8.5c.12-.22.23-.43.35-.63Z" style="fill:#BA68C8;opacity:0.35000000000000003"></path></g><g id="freepik--Chest--inject-72"><path d="M87.91,302.87c-.79-15.64-4.32-19.95-12.26-20.83l-13.09-1.38c-3.89.79-17.26,5-21.76,6.61-2.9,1-4.15,7.17-4.77,16.81-.51,7.84-.59,14.41-.33,25.24.22,9.07.44,19.42,3.22,32,10.83,4.11,42.15.19,54.63-14.12-1-3.23-5-9.08-5.64-15.58C88.31,318,88.15,307.79,87.91,302.87Z" style="fill:#263238"></path><path d="M40.5,287.07l9.78-3.44s1.77,4.11,5.56,12,3.92,11.46,4.28,25.22,2.87,38,4.51,43.54c-6.07.84-11.32,9.64-26.89,6.91,0,0-3.28-15.94-3.79-43.09C33.69,314.14,33.62,291.05,40.5,287.07Z" style="fill:#BA68C8"></path><path d="M40.5,287.07l9.78-3.44s1.77,4.11,5.56,12,3.92,11.46,4.28,25.22,2.87,38,4.51,43.54c-6.07.84-11.32,9.64-26.89,6.91,0,0-3.28-15.94-3.79-43.09C33.69,314.14,33.62,291.05,40.5,287.07Z" style="fill:#fff;opacity:0.35000000000000003"></path><path d="M59.57,308.52c-1.52-12.36-6.7-13-7.9-8.94a25.13,25.13,0,0,1-4.61-14.81c1.22-2.13,2.18-3.91,2.59-4.71.54-1.06,1.16-.84,1.16-.84l0,3.14s.71,3.59,4.41,8.13C58,293.83,58.93,298.1,59.57,308.52Z" style="fill:#BA68C8"></path><path d="M59.57,308.52c-1.52-12.36-6.7-13-7.9-8.94a25.13,25.13,0,0,1-4.61-14.81c1.22-2.13,2.18-3.91,2.59-4.71.54-1.06,1.16-.84,1.16-.84l0,3.14s.71,3.59,4.41,8.13C58,293.83,58.93,298.1,59.57,308.52Z" style="fill:#fff;opacity:0.55"></path><path d="M68.48,282.47c5.57,2.17,9.65,8.35,11,16.91s2.39,30.39,3.31,36.84,5,17.71,5,17.71,6.84-2.81,8.73-8.18c-3.15-4.1-6.07-9.8-6.61-15.18s0-22.54-.85-29.1-1.51-15.63-9.29-18.66C76.44,281.5,68.54,281,68.54,281Z" style="fill:#BA68C8"></path><path d="M68.48,282.47c5.57,2.17,9.65,8.35,11,16.91s2.39,30.39,3.31,36.84,5,17.71,5,17.71,6.84-2.81,8.73-8.18c-3.15-4.1-6.07-9.8-6.61-15.18s0-22.54-.85-29.1-1.51-15.63-9.29-18.66C76.44,281.5,68.54,281,68.54,281Z" style="fill:#fff;opacity:0.35000000000000003"></path><path d="M80.05,304.32c-.76-6.3-4.34-17.56-11.16-19.86a5.35,5.35,0,0,1-.41-2l.06-3.27A27.52,27.52,0,0,1,74.36,282c2.94,1.9,8,8,9.33,12.88C80.74,292.41,79.57,296.49,80.05,304.32Z" style="fill:#BA68C8"></path><path d="M80.05,304.32c-.76-6.3-4.34-17.56-11.16-19.86a5.35,5.35,0,0,1-.41-2l.06-3.27A27.52,27.52,0,0,1,74.36,282c2.94,1.9,8,8,9.33,12.88C80.74,292.41,79.57,296.49,80.05,304.32Z" style="fill:#fff;opacity:0.55"></path><g id="freepik--Head--inject-72"><path d="M50.86,274.31c-.77-4.41-5.18-9-7.17-12.81s-3.07-6.56-2.87-10c.12-2.06,1.4-4.87,2.93-5.46a9.57,9.57,0,0,1,7-12,31,31,0,0,0,4.21-1.2c1.66-.7,2-2,3.36-3.18,2.3-2,6.18-2,7.67.92,1.53-2,3.61-1.95,6-1.35a4.1,4.1,0,0,1,3.17,4.62c3.2-1.81,6.17.44,6.47,2.33.22,1.4-.07,2.57.85,3.82,1,1.4,3,1.37,3.56.23.34,2-.42,3.49-2.57,3.39a4.46,4.46,0,0,1,.58,3.77,4.09,4.09,0,0,1-3.7,2.85,7,7,0,0,1-.94,3,7.1,7.1,0,0,1-2.52,2.29c-3.24,1.56-6.83,2.09-10.33,2.83l-4.15.88c-.25.05-1.5.13-1.65.35Z" style="fill:#263238"></path><path d="M45.49,268.63a4.27,4.27,0,0,0,5.2-.17l.17,14.45c2.45,6.2,12.25,9.3,17.7,9.13a17.89,17.89,0,0,0-.08-9.57l.06-4a42.48,42.48,0,0,0,5.24-.26c3.45-.49,6-3.3,7-7a38.76,38.76,0,0,0,.36-14.83,12.57,12.57,0,0,1-.21-3.62A17.06,17.06,0,0,0,79.82,245c-3.82-3-12.61-4-20.78,1,1,4.87-.91,8.75-4.44,10.62.17,1.32.35,4.65-1.82,4.6-1.56,0-1.67-2-3.28-3.71s-5.35-2.16-6.78.39C40.71,261.4,42.09,266.63,45.49,268.63Z" style="fill:#c8856a"></path><path d="M68.54,278.49c-5.48-.62-9.64-1.19-12.51-5.15a34.6,34.6,0,0,1-3.34-6.48A26.91,26.91,0,0,0,55.08,275c1.39,2.53,4.85,4.62,13.44,5.32Z" style="fill:#af6152"></path><path d="M65.78,257.29a1.56,1.56,0,0,1-1.55,1.58,1.61,1.61,0,1,1,1.55-1.58Z" style="fill:#263238"></path><path d="M65.35,252.23l-3.49,1.44a2,2,0,0,1,1.06-2.53A1.85,1.85,0,0,1,65.35,252.23Z" style="fill:#263238"></path><path d="M78.63,253.2l-3.56-1.31a1.82,1.82,0,0,1,2.37-1.17A2,2,0,0,1,78.63,253.2Z" style="fill:#263238"></path><path d="M77.76,256.81a1.54,1.54,0,1,1-1.38-1.74A1.56,1.56,0,0,1,77.76,256.81Z" style="fill:#263238"></path><path d="M75.59,262.48l-5.36,2.4-1.69-10.51C70.53,253.65,73.11,258.47,75.59,262.48Z" style="fill:#af6152"></path><path d="M65.21,267.08l6.45,1.36a3.23,3.23,0,0,1-3.83,2.65A3.44,3.44,0,0,1,65.21,267.08Z" style="fill:#af6152"></path><path d="M66,268.13a3.56,3.56,0,0,0-.8,0,3.4,3.4,0,0,0,2.64,2.95,2.87,2.87,0,0,0,1,0A3,3,0,0,0,66,268.13Z" style="fill:#ffa8a7"></path></g></g><g id="freepik--arm--inject-72"><g id="freepik--Laptop--inject-72"><path d="M132,374.08a10.13,10.13,0,0,0-1.57-1.85c-6-5.57-17.33-12.93-26.94-19.05L59.8,378.42a.4.4,0,0,0,0,.69l31.75,18.33Z" style="opacity:0.15"></path><path d="M145.27,361.24V362a2.92,2.92,0,0,1-1.45,2.52L93,393.81a2.94,2.94,0,0,1-2.91,0l-27.7-15.94a2.91,2.91,0,0,1-1.45-2.51v-1h0a.36.36,0,0,0,.18.32l30.42,17.57Z" style="fill:#37474f"></path><path d="M91.55,392.26v1.93a2.88,2.88,0,0,0,1.45-.38l50.82-29.34a2.91,2.91,0,0,0,1.46-2.52v-.71Z" style="fill:#263238"></path><path d="M145.28,361.24l-30.14-17.4a1.73,1.73,0,0,0-1.73,0L61.13,374a.39.39,0,0,0,0,.67l30.42,17.56Z" style="fill:#455a64"></path><polygon points="91.27 389.7 75.02 380.33 122.54 352.89 138.88 362.22 91.27 389.7" style="fill:#37474f"></polygon><polygon points="138.88 362.21 138.26 362.57 122.54 353.6 75.64 380.69 75.02 380.33 122.54 352.89 138.88 362.21" style="fill:#263238"></polygon><polygon points="83.28 363.63 83.58 363.8 91.55 368.4 105.72 360.22 106.01 360.05 97.75 355.28 83.28 363.63" style="fill:#263238"></polygon><polygon points="83.58 363.8 91.55 368.4 105.72 360.22 97.75 355.62 83.58 363.8" style="fill:#37474f"></polygon><g id="freepik--arm--inject-72"><path d="M99.29,367.09c-2.55-2.53-6.25-6-9.35-7.06a16.79,16.79,0,0,0-2.19-.68,27,27,0,0,0,3.2-.64,5.69,5.69,0,0,0,2.69-1.79c.27-.35.46-.9.12-1.18a.77.77,0,0,0-.44-.17c-2.33-.07-4.16-.43-6.28-.58a8.78,8.78,0,0,0-2.85.05c-.87.24-1.73.49-2.58.78-3.86,1.34-7.52,1-12.85-1.46S44.2,340.09,44.2,340.09l4.08,22.53,15.2,5.88h0l.16.06a35.8,35.8,0,0,0,5.22,2.3c3.44,1.06,7.85-.19,10.84-.35s8.06,1.22,10.84,2.35,6.11-3.15,7.5-2.63S101.84,369.61,99.29,367.09Z" style="fill:#c8856a"></path><path d="M86.46,357.7a10.39,10.39,0,0,0-4.23.68,23.28,23.28,0,0,1,5.52,1,27,27,0,0,0,3.2-.64,5.82,5.82,0,0,0,2.44-1.5C91.72,358.35,88.48,357.9,86.46,357.7Z" style="fill:#af6152"></path></g><path d="M92.37,392.69a3.43,3.43,0,0,0,3-.23l50.6-29.21a3.5,3.5,0,0,0,1.68-2.41l5.54-33a3.64,3.64,0,0,0,0-.57,3.43,3.43,0,0,0-1-2.45L99.59,355.16a2.54,2.54,0,0,0-1.23,1.78Z" style="fill:#263238"></path><path d="M91.55,392.26l.35.2a3.42,3.42,0,0,0,.47.23l6-35.75a2.54,2.54,0,0,1,1.23-1.78l52.58-30.37a3.39,3.39,0,0,0-.7-.53L98.78,354.68a2.54,2.54,0,0,0-1.23,1.78Z" style="fill:#455a64"></path><path d="M98.84,355.83l-.81-.47a2.54,2.54,0,0,0-.48,1.1l-6,35.8.34.2a4.23,4.23,0,0,0,.48.23l6-35.75A2.58,2.58,0,0,1,98.84,355.83Z" style="fill:#37474f"></path><path d="M120.87,362.19c.37-2.21,2.65-5.15,5.1-6.56s4.12-.76,3.75,1.45-2.65,5.15-5.1,6.56S120.5,364.41,120.87,362.19Z" style="fill:#BA68C8"></path></g><path d="M59,350.61c-8.1-5.87-14.78-10.52-14.78-10.52l2.32-24.91s1.75-12.32-1-19.29c-2.88-7.24-5.73-8.25-5.73-8.25a27.85,27.85,0,0,0-7.84,4.4c-3.14,2.74-4.63,9.12-5.39,18.12-.67,7.9-1.92,27.71-2.11,32.34-.26,5.86,0,10.58,6.23,13.41,6.55,3,26.2,9.71,26.2,9.71Z" style="fill:#c8856a"></path><path d="M40.5,287.07c-6.37,2-9.62,3.22-12.31,10.68s-2.6,21.17-3.42,32.16-1.43,18.16.33,21.62c1,1.91,2.73,3.66,9,6s12.38,4.53,12.38,4.53.6-9.7,7.53-16.23l-9.51-5.78s2.18-22.44,2.71-28.57S48.43,292.38,40.5,287.07Z" style="fill:#BA68C8"></path><path d="M40.5,287.07c-6.37,2-9.62,3.22-12.31,10.68s-2.6,21.17-3.42,32.16-1.43,18.16.33,21.62c1,1.91,2.73,3.66,9,6s12.38,4.53,12.38,4.53.6-9.7,7.53-16.23l-9.51-5.78s2.18-22.44,2.71-28.57S48.43,292.38,40.5,287.07Z" style="fill:#fff;opacity:0.55"></path><path d="M44.54,340.09c-3.73-1.76-11.12-.18-12.69,1.15,1.88-3.25,6.9-4.42,12.93-3.67Z" style="fill:#BA68C8;opacity:0.35000000000000003"></path><path d="M46.94,346.84A9,9,0,0,0,44.2,350a15.88,15.88,0,0,0-1.52,3.81,20.1,20.1,0,0,0-.64,4.63,19.3,19.3,0,0,0,0,2l.71.26a19.18,19.18,0,0,1,.55-6.66,16.91,16.91,0,0,1,1.46-3.73A36.17,36.17,0,0,1,47,347C47.05,347,47,346.78,46.94,346.84Z" style="fill:#BA68C8;opacity:0.35000000000000003"></path></g></g></g></g><g id="freepik--character-1--inject-72"><path id="freepik--shadow--inject-72" d="M276.21,231.48c25.32-14.62,25.32-38.32,0-52.94s-66.38-14.62-91.7,0-25.32,38.33,0,52.95S250.88,246.1,276.21,231.48Z" style="opacity:0.1"></path><g id="freepik--character--inject-72"><g id="freepik--bottom--inject-72"><path d="M252,217.1l7.31-13,13.2,8.53-17.57,19s-8.24-1.13-9.38-5.5S249.68,218.44,252,217.1Z" style="fill:#ffa8a7"></path><path d="M242.25,221.89a7,7,0,0,0-2,2c-.58.78-.59,4.72-1.19,6.52s-1,2.26-2,4.51c-1.08,2.48-3,4.72-1.24,11.31s4.83,9.83,7.48,11.54a7.13,7.13,0,0,0,3.25.94s3.63-1.19,3.18-3.33S242.25,221.89,242.25,221.89Z" style="fill:#263238"></path><path d="M257.6,229.72a7.8,7.8,0,0,1-1.52,2.18,17.84,17.84,0,0,0-2.59,6.4c-2.56,10.2,1.3,15.61-4.41,19.22-1.65.94-5,.52-9.74-6.19-2.44-3.43-3.61-10.3-2.47-13.34s2.61-5,3.37-7.34.61-6.78,2-8.76a9.58,9.58,0,0,1,3.33-2.62c1-.56,3.19-1.25,4.22-1.77s1.61-1.15,2.22-.4l-1.22,1.38c-1.92,2.42-1.43,2.81-1.44,4.14a21.41,21.41,0,0,1-.86,4.21c1.35-1.56,1.94-3,3.33-2.64s1.56.24,3.49,2.22S257.71,229.13,257.6,229.72Z" style="fill:#BA68C8"></path><path d="M257.6,229.72a7.8,7.8,0,0,1-1.52,2.18,17.84,17.84,0,0,0-2.59,6.4c-2.56,10.2,1.3,15.61-4.41,19.22-1.65.94-5,.52-9.74-6.19-2.44-3.43-3.61-10.3-2.47-13.34s2.61-5,3.37-7.34.61-6.78,2-8.76a9.58,9.58,0,0,1,3.33-2.62c1-.56,3.19-1.25,4.22-1.77s1.61-1.15,2.22-.4l-1.22,1.38c-1.92,2.42-1.43,2.81-1.44,4.14a21.41,21.41,0,0,1-.86,4.21c1.35-1.56,1.94-3,3.33-2.64s1.56.24,3.49,2.22S257.71,229.13,257.6,229.72Z" style="opacity:0.4"></path><path d="M239.34,251.33c-2.44-3.43-3.61-10.3-2.47-13.34a27.32,27.32,0,0,1,1.32-2.94c-.05.21-.13.42-.16.59q-.12.6-.21,1.2a9.32,9.32,0,0,0,.31,4.69c.52,1.31,1.73,4.58,3.46,4.73,1,.09,1.84-.84,2.27-1.92.18-.45.5-1.69.5-1.69a15.11,15.11,0,0,1,4.42,2c2.44,1.77,2.33,2.13,2.33,2.13a6.56,6.56,0,0,0-.18,2.2,5.47,5.47,0,0,0,.84,2.24,3.38,3.38,0,0,0,.61.54,6.68,6.68,0,0,1-3.3,5.72C247.43,258.46,244.11,258,239.34,251.33Z" style="opacity:0.30000000000000004"></path><path d="M253.49,238.3a34.74,34.74,0,0,0-1,8.2c-1.06,2.59-1.89,2.48-1.94,1.11s2-7,3.58-11.58C253.88,236.79,253.67,237.57,253.49,238.3Z" style="fill:#37474f"></path><path d="M248,221.52a5.7,5.7,0,0,1,1.17-3.72c.25-.1.49-.21.68-.3,1.11-.57,1.61-1.15,2.22-.4l-1.22,1.38c-1.92,2.42-1.43,2.81-1.44,4.14a21.41,21.41,0,0,1-.86,4.21c-1.25,4.42-2.27,5.87-2.95,10.07s0,7.07-.57,7.29-1.79-.32-1.86-3.72,1.68-9,2.85-11.65S248.08,223.34,248,221.52Z" style="fill:#37474f"></path><path d="M244,242.93a.46.46,0,0,0,.21.13,10.09,10.09,0,0,1,6.58,4.25.42.42,0,0,0,.66-.52,11,11,0,0,0-7-4.55.43.43,0,0,0-.51.31A.4.4,0,0,0,244,242.93Z" style="fill:#ebebeb"></path><path d="M244.73,239.44a.45.45,0,0,0,.21.12,11.39,11.39,0,0,1,6.92,4.63.4.4,0,0,0,.6.07.43.43,0,0,0,.08-.6,12.2,12.2,0,0,0-7.37-4.93.43.43,0,0,0-.53.3A.46.46,0,0,0,244.73,239.44Z" style="fill:#ebebeb"></path><path d="M244.83,235.56a.53.53,0,0,0,.23.14,12.85,12.85,0,0,1,7.72,5.19.48.48,0,1,0,.76-.58,13.82,13.82,0,0,0-8.23-5.53.48.48,0,0,0-.48.78Z" style="fill:#ebebeb"></path><path d="M245.54,232.27a.49.49,0,0,0,.22.14,12.53,12.53,0,0,1,7.56,5.07.46.46,0,0,0,.65.08.45.45,0,0,0,.08-.65,13.36,13.36,0,0,0-8-5.4.46.46,0,0,0-.47.76Z" style="fill:#ebebeb"></path><path d="M246.89,229.1a.59.59,0,0,0,.23.14,12.46,12.46,0,0,1,7.55,5.08.48.48,0,0,0,.66.07.46.46,0,0,0,.08-.65,13.46,13.46,0,0,0-8-5.4.47.47,0,0,0-.58.32A.49.49,0,0,0,246.89,229.1Z" style="fill:#ebebeb"></path><polygon points="255.63 218.33 264.08 225.88 268.9 229.21 262.77 239.67 247.15 231.33 255.63 218.33" style="fill:#ffa8a7"></polygon><path d="M239.86,169.66s32.16-3.89,45.81-3.2c13.94.7,14.22,10.93,11,17.48-8.23,16.74-31.58,37-31.58,37s-7.65-3.91-9.75-10.76l5.84-11.92L244,202.88l-1.85-2.46Z" style="fill:#455a64"></path><path d="M264.41,188a121.37,121.37,0,0,0-7.55,11.39l4.32-1.17c5.3-11.22,6.43-14.51,14.34-19.53C275.52,178.71,269.92,180.54,264.41,188Z" style="fill:#37474f"></path><path d="M239.86,169.66l-49.61,6.85s-5.7,18.24-2,29.33,14.54,15,19.79,15.68c7.49.92,16.33-1,16.33-1A41.74,41.74,0,0,0,232.9,226c4.32,1.94,23.21,10.85,23.21,10.85s5.6-4.34,5.49-13.9l-19.41-22.55Z" style="fill:#455a64"></path><path d="M256.11,236.87s1.06-.44,2.68-3.2c-4.92-1.4-21-8.53-26.22-11-9.25-4.41-12-8.75-12-8.75s-.19,2.8,3.79,6.58A41.74,41.74,0,0,0,232.9,226C237.22,228,256.11,236.87,256.11,236.87Z" style="fill:#37474f"></path><path d="M214.4,218.25c-4.74.55-17.32-2.35-21-11.46-3.65-8.92-1.83-19.3-.54-28.24l-1.53.28-4.28.34c-.53,5.19-1.59,18.16,1.26,26.67,3.71,11.09,14.54,15,19.79,15.68,7.49.92,16.33-1,16.33-1l-2.33-4A32.41,32.41,0,0,1,214.4,218.25Z" style="fill:#37474f"></path><path d="M244.28,202.84l-2.61-3.36c-1.77-2.26-4.59-6.53-12.33-6.58s-22.65.64-22.65.64l21-2.61c5.39-.65,8.92.12,11.86,3s7.43,8.2,7.43,8.2Z" style="fill:#37474f"></path><path d="M234.36,192.48a15.39,15.39,0,0,0,4.08-10.56S240,189.05,236.8,194Z" style="fill:#37474f"></path><path d="M288.77,235.68c3.69,1.64,5.94,3.23,7.57,5.58s2.07,4.66.3,7.33-4.94,5.76-8.53,5.4-5.75-1.37-9-3.32Z" style="fill:#263238"></path><path d="M258.62,237.53c-.1,1.12,4.55,3.57,9.37,6.14,5.17,2.75,6.4,4.45,10.61,6.76,4.82,2.64,6.69,2.87,10.56,2s8.82-6.16,5.76-11.33c-2.5-4.22-5.92-5.5-11.12-7.12a99.41,99.41,0,0,1-12.14-4.52c-3.74-1.64-6.75-4.43-7.58-3.55.53.29,4.4,2.92,3.62,3.55-.2.34-.76.21-1.72-.24a1.63,1.63,0,0,0-1.36-.13,2.63,2.63,0,0,0-1,1.14,28.22,28.22,0,0,0-1.32,3c-.33.68-.19.28-.49,1a7.74,7.74,0,0,0-.94,2.66c0,.43.34.59.67.81s.78.51,1.08.76c.13.11.34.44.26.6s-.81.11-1.09,0-.76-.27-1.1-.41S259.48,238,258.62,237.53Z" style="fill:#BA68C8"></path><path d="M258.62,237.53c-.1,1.12,4.55,3.57,9.37,6.14,5.17,2.75,6.4,4.45,10.61,6.76,4.82,2.64,6.69,2.87,10.56,2s8.82-6.16,5.76-11.33c-2.5-4.22-5.92-5.5-11.12-7.12a99.41,99.41,0,0,1-12.14-4.52c-3.74-1.64-6.75-4.43-7.58-3.55.53.29,4.4,2.92,3.62,3.55-.2.34-.76.21-1.72-.24a1.63,1.63,0,0,0-1.36-.13,2.63,2.63,0,0,0-1,1.14,28.22,28.22,0,0,0-1.32,3c-.33.68-.19.28-.49,1a7.74,7.74,0,0,0-.94,2.66c0,.43.34.59.67.81s.78.51,1.08.76c.13.11.34.44.26.6s-.81.11-1.09,0-.76-.27-1.1-.41S259.48,238,258.62,237.53Z" style="opacity:0.4"></path><path d="M277,249.54c.69.39,5.07,2.67,6.53,1.48s-1.91-3.59-1.91-3.59-.4-3.4,3.89-8.18c.68.58,3.62.68,3.65-1.05s-4.79-4.07-4.86-4.11c5,1.57,8.24,2.88,10.67,7,3.06,5.17-1.89,10.44-5.76,11.33s-5.74.67-10.56-2C278.12,250.17,277.37,249.82,277,249.54Z" style="opacity:0.30000000000000004"></path><path d="M282.06,247.11c1.84.71.48,2.35-2.22,1.68-4.06-1-7.36-3.48-11.85-5.12-4.82-2.57-9.75-5-9.37-6.21.87.37,2.72,1.24,2.72,1.24.36.18,1.3.57,1.3.57,3.66,1.78,7.68,4.55,11.67,5.83C277.82,246.22,280.22,246.41,282.06,247.11Z" style="fill:#37474f"></path><path d="M285.16,239.88c-1.67-1.06-1.93-1.92-5.21-3.61s-8.79-5.22-12.2-7.41a46.72,46.72,0,0,1-3.67-3c.61-.63,2.72.07,4.79,1.51s3.34,2.35,5.4,3.55c4,2.65,8.61,4.52,10.89,6.13S286.82,240.94,285.16,239.88Z" style="fill:#37474f"></path><path d="M285.43,239.43a.42.42,0,0,1-.11.15,15,15,0,0,0-3.55,8.12.49.49,0,0,1-.49.44.41.41,0,0,1-.36-.49,15.7,15.7,0,0,1,3.87-8.74.39.39,0,0,1,.6,0A.49.49,0,0,1,285.43,239.43Z" style="fill:#f0f0f0"></path><path d="M282.23,236.87a.71.71,0,0,1-.1.14,20.32,20.32,0,0,0-4.38,9.58.5.5,0,0,1-.5.42.41.41,0,0,1-.34-.51,21.08,21.08,0,0,1,4.66-10.14.41.41,0,0,1,.61,0A.51.51,0,0,1,282.23,236.87Z" style="fill:#f0f0f0"></path><path d="M274.51,246.09a.45.45,0,0,1-.41.28.4.4,0,0,1-.39-.46c.46-6,4.56-11.41,4.75-11.6a.39.39,0,0,1,.6,0,.51.51,0,0,1-.06.66s-4,5.36-4.43,10.92A.6.6,0,0,1,274.51,246.09Z" style="fill:#f0f0f0"></path><path d="M271.54,244a.47.47,0,0,1-.4.28.39.39,0,0,1-.4-.45,17.63,17.63,0,0,1,4.95-11,.39.39,0,0,1,.6,0,.52.52,0,0,1-.11.66,17,17,0,0,0-4.59,10.25A.46.46,0,0,1,271.54,244Z" style="fill:#f0f0f0"></path><path d="M267.64,242.15a.46.46,0,0,1-.39.28.41.41,0,0,1-.41-.45c.3-6.22,4.89-10.84,5.09-11a.39.39,0,0,1,.6,0,.5.5,0,0,1-.09.66s-4.46,4.52-4.74,10.29A.47.47,0,0,1,267.64,242.15Z" style="fill:#ebebeb"></path></g><g id="freepik--top--inject-72"><g id="freepik--Hair--inject-72"><path d="M200.22,72.3c-4-2.89-9-2.21-13.4,2.06a8.29,8.29,0,0,0-2.37,7c.12,1.37.87,2.82.5,4.19a11,11,0,0,1-2.25,3.63,11.94,11.94,0,0,0-3,8.69c.17,2.65,2.18,3.94,3,6.24a8.59,8.59,0,0,1-.8,6.75,10.8,10.8,0,0,0-1.74,4.48,7.93,7.93,0,0,0,1.71,6.24c1.78,2.06,4.78,2.73,7.33,3.34l.27.06a11,11,0,0,0,4.39.17,3,3,0,0,0,.92-.27,3.23,3.23,0,0,1,.62-.3,15.32,15.32,0,0,0,1.74-.56,13.37,13.37,0,0,0,5.71-4.39,5.22,5.22,0,0,0,1.23-3.13c0-1.77-1.49-3.27-1.54-5s1.21-3.19,1.69-4.85c.73-2.56-.47-5.26-1.91-7.5s-3.17-4.4-3.68-7a9.35,9.35,0,0,1,.14-3.94,12.74,12.74,0,0,1,.64-1.89,16.8,16.8,0,0,0,1.22-3,20,20,0,0,0,0-5.07C200.52,76.86,200.9,74.23,200.22,72.3Z" style="fill:#263238"></path><path d="M198.52,73c-3-1.85-8.49,4.42-5.26,7.63Z" style="fill:#BA68C8"></path></g><path id="freepik--arm--inject-72" d="M221.53,114.65c6.15,0,10.91,2.83,12.35,9.37,1.38,6.25,3.58,25.9,3.58,25.9l11.48,9.19-7.41,9.27s-13.14-6.32-17.68-8.68c-6.94-3.6-6.11-5-5.74-13.74S221.53,114.65,221.53,114.65Z" style="fill:#ffa8a7"></path><g id="freepik--chest--inject-72"><path d="M188.27,149.4c1.16-17,1.12-24.38,2.8-29.95,2.59-.77,8.16-2.32,8.16-2.32a116.06,116.06,0,0,1,16.92-2.37l5.38-.11c3.65,3.51,14.67,11.34,17.79,18.43a14.57,14.57,0,0,1-4.24,16.77c.08,5.06,0,12,0,12s2,3.56,4.83,7.76c-.81,8.38-10.33,16.85-25.24,20.89a39.94,39.94,0,0,1-28.5-2.93S187.11,166.27,188.27,149.4Z" style="fill:#37474f"></path><path d="M223.41,151.79s-4,5.42-12.53,4.83c-8.75-.62-10.75-7.77-10.75-7.77s0,9.48,10.48,10.21A12.58,12.58,0,0,0,223.41,151.79Z" style="fill:#263238"></path></g><g id="freepik--laptop--inject-72"><path d="M215,196.69v.94a2.68,2.68,0,0,0,1.33,2.31l25.33,14.58a2.7,2.7,0,0,0,2.66,0l46.48-26.84a2.65,2.65,0,0,0,1.33-2.3v-.65L243,213.1Z" style="fill:#ebebeb"></path><path d="M292.13,184.73l-27.56-15.91a1.59,1.59,0,0,0-1.58,0l-47.81,27.61a.35.35,0,0,0,0,.61L243,213.1Z" style="fill:#fafafa"></path><polygon points="242.74 210.76 227.88 202.19 271.34 177.1 286.28 185.63 242.74 210.76" style="fill:#e0e0e0"></polygon><polygon points="235.43 186.91 235.71 187.07 242.99 191.28 255.95 183.8 256.22 183.64 248.66 179.28 235.43 186.91" style="fill:#e0e0e0"></polygon><polygon points="235.71 187.07 242.99 191.28 255.95 183.8 248.66 179.59 235.71 187.07" style="fill:#e6e6e6"></polygon><path d="M243,213.1v1.77a2.73,2.73,0,0,0,1.33-.35l46.48-26.84a2.65,2.65,0,0,0,1.33-2.3v-.65Z" style="fill:#ebebeb"></path><g style="opacity:0.5;mix-blend-mode:multiply"><path d="M243,213.1v1.77a2.73,2.73,0,0,0,1.33-.35l46.48-26.84a2.65,2.65,0,0,0,1.33-2.3v-.65Z" style="fill:#e0e0e0"></path></g><path d="M248.94,159.11a25.09,25.09,0,0,0,8.34,4.83c5.72,2,6.9,1.95,11.38,5.35a39.11,39.11,0,0,1,4.36,4.07c1.32,2.29,3.15,4.25,4.62,6.44,1.2,1.3-.26,1.68-1.41,1.5-3.15-.65-5.08-3.67-7.64-5.34a10.63,10.63,0,0,1-.21,3.23c-.18.84-.22,1.91-1.09,2.36a6.63,6.63,0,0,1-1.93.34,1.33,1.33,0,0,1-.53.74,2.18,2.18,0,0,1-1.59.05,6.58,6.58,0,0,1-.83-.32,1.59,1.59,0,0,1-1.22,1,6.92,6.92,0,0,1-3.63-.68c-.16-.11-1.34-1.13-1.69-1.42s-1-.7-1.14-1.13.86-1.33,1.57-1.29a7.22,7.22,0,0,1,2.26.66,7.87,7.87,0,0,1-.23-2.13c-.4-1.14-5.14-1.12-9-2.7-2.91-1.19-4.11-3.94-5.39-4.78-.78-.52-1.59-1-2.42-1.52" style="fill:#ffa8a7"></path><path d="M243.74,213.49a3.14,3.14,0,0,0,2.72-.21l46.27-26.71a3.18,3.18,0,0,0,1.53-2.2l5.07-30.21a3.12,3.12,0,0,0,0-.52,3.18,3.18,0,0,0-.93-2.24l-48.09,27.77a2.36,2.36,0,0,0-1.13,1.63Z" style="fill:#BA68C8"></path><g style="opacity:0.7000000000000001"><path d="M243.74,213.49a3.14,3.14,0,0,0,2.72-.21l46.27-26.71a3.18,3.18,0,0,0,1.53-2.2l5.07-30.21a3.12,3.12,0,0,0,0-.52,3.18,3.18,0,0,0-.93-2.24l-48.09,27.77a2.36,2.36,0,0,0-1.13,1.63Z" style="fill:#fff"></path></g><path d="M243,213.1l.32.18a3.42,3.42,0,0,0,.43.21l5.48-32.69a2.36,2.36,0,0,1,1.13-1.63l48.09-27.77a3.87,3.87,0,0,0-.64-.49l-48.19,27.82a2.36,2.36,0,0,0-1.13,1.63Z" style="fill:#fafafa"></path><path d="M269.81,185.61c.34-2,2.42-4.71,4.66-6s3.78-.69,3.44,1.33-2.43,4.71-4.67,6S269.47,187.63,269.81,185.61Z" style="fill:#BA68C8"></path></g><g id="freepik--arm--inject-72"><path d="M175.73,164.71c1.14-12.37,3.42-26.75,5.78-35.68,1.26-4.75,2.53-7,9.57-9.54,7,4.16,5.49,19.66,4.84,23.18l-4.35,22.48A133.84,133.84,0,0,0,204,174a29.56,29.56,0,0,0,15.83,4.85c6.05.22,8.46-.17,11.7.93,1.72.59,5.65,2,7,2.51s3.86,2.71,6.14,4.11-.3,2.54-1.91,2.21a20.12,20.12,0,0,1-4.9-1.9,26.84,26.84,0,0,0-4.17-1.22,24.4,24.4,0,0,1,1.25,4.65c.07.86.34,1.89-.35,2.59a7,7,0,0,1-1.75.89,1.27,1.27,0,0,1-.29.86,2.23,2.23,0,0,1-1.5.52,6.66,6.66,0,0,1-.88-.06,1.61,1.61,0,0,1-.87,1.32,7,7,0,0,1-3.67.42c-.19-.05-1.61-.68-2-.86a3.54,3.54,0,0,1-1.43-.74c-.33-.42.42-1.53,1.12-1.7a7.46,7.46,0,0,1,2.35,0,8.61,8.61,0,0,1-.85-2c-.72-1-5.23.44-9.38.06-3.13-.28-5.6-3-7-3.54-9.21-3.28-16.22-5.54-25.63-10.22C174.13,173.43,175.13,171.13,175.73,164.71Z" style="fill:#ffa8a7"></path><path d="M234.5,185.71c-.56-1.12-1.41-2.45-2.32-2.7a10.21,10.21,0,0,1,1.5,2.49Z" style="fill:#f28f8f"></path><path d="M232.83,193.63a9.48,9.48,0,0,0-.13-2.55,21.81,21.81,0,0,0-.53-2.5,10.77,10.77,0,0,0-.89-2.41,4.6,4.6,0,0,0-1.69-1.91,3.52,3.52,0,0,1,.78,1,7.64,7.64,0,0,1,.57,1.1,16.8,16.8,0,0,1,.76,2.37c.23.81.43,1.63.64,2.44A22.65,22.65,0,0,1,232.83,193.63Z" style="fill:#f28f8f"></path><path d="M230.16,195a11.62,11.62,0,0,0-.21-2.5,20.1,20.1,0,0,0-.57-2.44,18,18,0,0,0-.88-2.35,4.81,4.81,0,0,0-1.45-2,3.2,3.2,0,0,1,.65,1,11.25,11.25,0,0,1,.45,1.14c.27.78.53,1.56.76,2.35C229.38,191.73,229.83,193.31,230.16,195Z" style="fill:#f28f8f"></path><path d="M223.28,193.39a4.45,4.45,0,0,1,1.05.07c.33,0,.58.2,1,.3l-.19-.26a.94.94,0,0,0,.11.49,1.22,1.22,0,0,0,.27.37,1.43,1.43,0,0,0,.73.4,4,4,0,0,1-.47-.61,1.66,1.66,0,0,1-.13-.32,1.1,1.1,0,0,1,0-.28v-.19l-.2-.07a3.13,3.13,0,0,0-1-.13A2.24,2.24,0,0,0,223.28,193.39Z" style="fill:#f28f8f"></path></g><path d="M224.44,72.7c8.17.08,9,10.36,4.73,17.68-7.6,13-25.15,8.27-25.15,8.27l-3.13,10.47s-2.84-2.92-6.47-7c-6.51-7.3-5.55-18.22-1.13-20.62C192.34,71.43,213.07,62.4,224.44,72.7Z" style="fill:#37474f"></path><path d="M224.43,78.63C227,80,229.16,86,228.78,97.77c-.27,8.44-3.32,11.86-5.89,12.94a16.1,16.1,0,0,1-6.81.92l.07,3.76s10.68,8.64.42,9.89c-10.72,1.31-15.09-8.6-15.09-8.6l-.83-15.52a4.13,4.13,0,0,1-6.35-.26c-2.89-3.35-2.49-7.53-.14-9.18s5.38-.35,6.63,2.44c2.66,1,6-1.93,5.33-12,3.11-1.82,4.82,1.1,11.41-.09C220.49,81.51,221.27,77.14,224.43,78.63Z" style="fill:#ffa8a7"></path><path d="M195.69,99.5a1.38,1.38,0,1,0,1.5-1.23A1.37,1.37,0,0,0,195.69,99.5Z" style="fill:#BA68C8"></path><path d="M216.08,111.63c-9.36-.73-11.91-4.65-12.9-7.88,0,0-.45,5,1.92,6.78,3.31,2.49,11.05,3.33,11.05,3.33Z" style="fill:#f28f8f"></path><path d="M219.84,103.22l-5.15-2a2.64,2.64,0,0,0,1.44,3.56A2.93,2.93,0,0,0,219.84,103.22Z" style="fill:#af6152"></path><path d="M217.31,104.92a2.86,2.86,0,0,1-1.18-.18,2.63,2.63,0,0,1-1.66-2.27A3.18,3.18,0,0,1,217.31,104.92Z" style="fill:#f28f8f"></path><path d="M211.54,93.4A1.56,1.56,0,1,0,213,91.78,1.55,1.55,0,0,0,211.54,93.4Z" style="fill:#263238"></path><path d="M222.89,92.64a1.55,1.55,0,0,0,1.63,1.46A1.53,1.53,0,0,0,226,92.49a1.55,1.55,0,0,0-3.1.15Z" style="fill:#263238"></path><path d="M227.08,87.66l-3.76-.24a1.82,1.82,0,0,1,1.94-1.77A2,2,0,0,1,227.08,87.66Z" style="fill:#263238"></path><path d="M209.78,87.74l3.78-.5a1.83,1.83,0,0,0-2.08-1.65A2,2,0,0,0,209.78,87.74Z" style="fill:#263238"></path><polygon points="218.19 90.65 219.41 100.19 224 98.15 218.19 90.65" style="fill:#f28f8f"></polygon></g></g></g><g id="freepik--icons-2--inject-72"><g id="freepik--Button--inject-72"><g id="freepik--Clock--inject-72"><path d="M372.45,220.65v8h0c0,3.9,2.62,7.78,7.76,10.75,10.36,6,27.15,6,37.5,0,5.15-3,7.73-6.85,7.76-10.75h0v-8l-3.32.54a20,20,0,0,0-4.45-3.42c-10.35-6-27.14-6-37.5,0a20.17,20.17,0,0,0-4.42,3.39Z" style="fill:#37474f"></path><ellipse cx="398.96" cy="220.58" rx="26.51" ry="15.31" style="fill:#455a64"></ellipse></g><path d="M387.27,221.91a8.33,8.33,0,0,1-4.1-1,3.41,3.41,0,0,1-2-2.78,2.67,2.67,0,0,1,1.51-2.28,8,8,0,0,1,7.35.28,3.4,3.4,0,0,1,2,2.78,2.65,2.65,0,0,1-1.5,2.28A6.59,6.59,0,0,1,387.27,221.91Zm-1.35-5.45a5.23,5.23,0,0,0-2.53.57,1.36,1.36,0,0,0-.79,1.06c0,.51.47,1.1,1.27,1.56a6.72,6.72,0,0,0,5.94.27,1.34,1.34,0,0,0,.8-1c0-.52-.47-1.1-1.27-1.56h0A7,7,0,0,0,385.92,216.46Z" style="fill:#fafafa"></path><path d="M403.18,231.09a8.37,8.37,0,0,1-4.11-1,3.4,3.4,0,0,1-2-2.78,2.65,2.65,0,0,1,1.5-2.28,8.07,8.07,0,0,1,7.36.28,3.41,3.41,0,0,1,2,2.78,2.67,2.67,0,0,1-1.51,2.28A6.58,6.58,0,0,1,403.18,231.09Zm-1.36-5.44a5.18,5.18,0,0,0-2.52.56,1.37,1.37,0,0,0-.8,1.06c0,.52.48,1.1,1.28,1.56a6.75,6.75,0,0,0,5.94.28,1.37,1.37,0,0,0,.8-1.06c0-.52-.48-1.1-1.28-1.56A7,7,0,0,0,401.82,225.65Z" style="fill:#fafafa"></path><rect x="393.85" y="218" width="1.41" height="10.14" transform="translate(4.09 453.22) rotate(-60)" style="fill:#fafafa"></rect><path d="M395.56,221.86a26.23,26.23,0,0,1-5.54-.63l.3-1.38c6.16,1.34,11.57.41,17.54-3l.71,1.22A25.47,25.47,0,0,1,395.56,221.86Z" style="fill:#fafafa"></path><path d="M411.14,215.73c1.87,1.08,2.08,2.71.46,3.64a7,7,0,0,1-6.32-.26c-1.86-1.08-2.07-2.71-.45-3.64A7,7,0,0,1,411.14,215.73Z" style="fill:#fafafa"></path></g><g id="freepik--button--inject-72"><g id="freepik--clock--inject-72"><path d="M181.83,330.71v8h0c0,3.9,2.61,7.78,7.76,10.75,10.35,6,27.14,6,37.5,0,5.14-3,7.73-6.85,7.76-10.75h0v-8l-3.31.54a20.22,20.22,0,0,0-4.45-3.42c-10.36-6-27.15-6-37.5,0a19.7,19.7,0,0,0-4.42,3.39Z" style="fill:#37474f"></path><ellipse cx="208.35" cy="330.64" rx="26.51" ry="15.31" style="fill:#455a64"></ellipse></g><path d="M198,331.08a8.33,8.33,0,0,1-4.1-1,3.41,3.41,0,0,1-2-2.78,2.67,2.67,0,0,1,1.51-2.28,8,8,0,0,1,7.35.28,3.4,3.4,0,0,1,2,2.78,2.65,2.65,0,0,1-1.5,2.28A6.59,6.59,0,0,1,198,331.08Zm-1.35-5.44a5.23,5.23,0,0,0-2.53.56,1.36,1.36,0,0,0-.79,1.06c0,.52.47,1.1,1.27,1.56a6.72,6.72,0,0,0,5.94.28,1.35,1.35,0,0,0,.8-1.06c0-.52-.47-1.1-1.27-1.56A7,7,0,0,0,196.6,325.64Z" style="fill:#fafafa"></path><path d="M211.88,328.29a8.37,8.37,0,0,1-4.11-1,3.4,3.4,0,0,1-2-2.78,2.65,2.65,0,0,1,1.5-2.28,8.07,8.07,0,0,1,7.36.28,3.4,3.4,0,0,1,2,2.78,2.67,2.67,0,0,1-1.51,2.28A6.58,6.58,0,0,1,211.88,328.29Zm-1.36-5.44a5.18,5.18,0,0,0-2.52.56,1.35,1.35,0,0,0-.8,1.06c0,.52.48,1.1,1.28,1.56a6.72,6.72,0,0,0,5.94.28,1.37,1.37,0,0,0,.8-1.06c0-.52-.48-1.1-1.28-1.56A7,7,0,0,0,210.52,322.85Z" style="fill:#fafafa"></path><path d="M216.87,335.58c1.87,1.07,2.07,2.71.45,3.64A7,7,0,0,1,211,339c-1.87-1.08-2.07-2.71-.45-3.65A7,7,0,0,1,216.87,335.58Z" style="fill:#fafafa"></path><path d="M213.94,338.08l-13.45-7.76.71-1.22,12.74,7.35,4-2.31a2.59,2.59,0,0,0,1.52-2.1c0-1-.83-2.08-2.29-2.92l-2.75-1.59.7-1.22,2.75,1.58c1.91,1.1,3,2.62,3,4.15a3.89,3.89,0,0,1-2.23,3.32Z" style="fill:#fafafa"></path></g><g id="freepik--button--inject-72"><g id="freepik--clock--inject-72"><path d="M154.67,238.35v8h0c0,3.9,2.62,7.78,7.76,10.75,10.36,6,27.14,6,37.5,0,5.14-3,7.73-6.85,7.76-10.75h0v-8l-3.31.54a19.67,19.67,0,0,0-4.45-3.41c-10.36-6-27.14-6-37.5,0a20.14,20.14,0,0,0-4.42,3.38Z" style="fill:#37474f"></path><ellipse cx="181.18" cy="238.27" rx="26.51" ry="15.31" style="fill:#455a64"></ellipse></g><path d="M166.88,240.2a8.4,8.4,0,0,1-4.11-1,3.42,3.42,0,0,1-2-2.78,2.67,2.67,0,0,1,1.51-2.28,8,8,0,0,1,7.35.28,3.4,3.4,0,0,1,2,2.78,2.65,2.65,0,0,1-1.5,2.28A6.59,6.59,0,0,1,166.88,240.2Zm-1.35-5.44a5.2,5.2,0,0,0-2.53.56,1.36,1.36,0,0,0-.79,1.06c0,.52.47,1.1,1.27,1.56a6.75,6.75,0,0,0,5.94.28,1.35,1.35,0,0,0,.8-1.06c0-.52-.48-1.1-1.27-1.56A7,7,0,0,0,165.53,234.76Z" style="fill:#fafafa"></path><path d="M182.78,249.38a8.36,8.36,0,0,1-4.1-1,3.4,3.4,0,0,1-2-2.78,2.65,2.65,0,0,1,1.5-2.28,8.07,8.07,0,0,1,7.36.28,3.42,3.42,0,0,1,2,2.78,2.67,2.67,0,0,1-1.51,2.28A6.59,6.59,0,0,1,182.78,249.38Zm-1.35-5.44a5.07,5.07,0,0,0-2.52.57,1.34,1.34,0,0,0-.8,1.05c0,.52.48,1.1,1.27,1.56a6.74,6.74,0,0,0,6,.28,1.36,1.36,0,0,0,.79-1.06c0-.51-.47-1.1-1.27-1.56A7.13,7.13,0,0,0,181.43,243.94Z" style="fill:#fafafa"></path><rect x="173.46" y="236.29" width="1.41" height="10.13" transform="translate(-121.94 271.53) rotate(-60)" style="fill:#fafafa"></rect><path d="M196.81,241.28a8.36,8.36,0,0,1-4.1-1,3.4,3.4,0,0,1-2-2.78,2.65,2.65,0,0,1,1.5-2.28,8.07,8.07,0,0,1,7.36.28,3.44,3.44,0,0,1,2,2.78,2.67,2.67,0,0,1-1.51,2.28A6.59,6.59,0,0,1,196.81,241.28Zm-1.35-5.44a5,5,0,0,0-2.52.57,1.34,1.34,0,0,0-.8,1.05c0,.52.48,1.1,1.27,1.56a6.74,6.74,0,0,0,6,.28,1.36,1.36,0,0,0,.79-1.06c0-.51-.47-1.1-1.27-1.56A7.16,7.16,0,0,0,195.46,235.84Z" style="fill:#fafafa"></path><path d="M192.23,236.41l-6.52-3.77c-3-1.74-7.57-1.94-10.15-.45l-1.33.77-.7-1.23,1.32-.76c3-1.75,8.1-1.55,11.56.45l6.53,3.76Z" style="fill:#fafafa"></path><path d="M179.46,233.5l-7.25.23c-.39,0-.75-.2-.73-.42l.4-4.19c0-.29.63-.38,1-.16l6.85,3.95C180.13,233.14,180,233.48,179.46,233.5Z" style="fill:#fafafa"></path></g></g><g id="freepik--Codes--inject-72"><g id="freepik--Code--inject-72"><path d="M298.55,292.41v60.5a4.41,4.41,0,0,1-2,3.45l-38.32,22.15a1.26,1.26,0,0,1-.66.19,1.07,1.07,0,0,1-.25,0l-.17-.06-.18-.09a1.77,1.77,0,0,1-.52-.67,2.34,2.34,0,0,1-.21-1v-60a4.39,4.39,0,0,1,2-3.44l38.32-22.12a1.43,1.43,0,0,1,1.34-.17.7.7,0,0,1,.17.09v0l.13.13a.2.2,0,0,1,.06.07.33.33,0,0,1,.06.1.68.68,0,0,1,.12.26.84.84,0,0,1,.05.17s0,0,0,0a1.06,1.06,0,0,1,0,.19C298.54,292.24,298.55,292.33,298.55,292.41Z" style="fill:#455a64"></path><path d="M297.9,291.1a1.43,1.43,0,0,0-1.34.17l-38.32,22.12a4.39,4.39,0,0,0-2,3.44v6.5l-5.11-2.94v-6.45a4.38,4.38,0,0,1,2-3.44l38.32-22.12a1.39,1.39,0,0,1,1.45-.12C293.25,288.47,297.47,290.87,297.9,291.1Z" style="fill:#BA68C8"></path><path d="M298.54,292.4c0-1.25-.89-1.76-2-1.13l-38.32,22.12a4.38,4.38,0,0,0-2,3.44v6.51l42.29-24.41Z" style="fill:#BA68C8"></path><g style="opacity:0.30000000000000004"><path d="M296.56,291.27l-38.32,22.12a4.13,4.13,0,0,0-1.4,1.47L251.75,312a3.89,3.89,0,0,1,1.38-1.46l38.32-22.12a1.4,1.4,0,0,1,1.45-.11c.35.22,4.57,2.61,5,2.83A1.42,1.42,0,0,0,296.56,291.27Z" style="fill:#fff"></path></g><path d="M251.14,320.4v-6.46a4.08,4.08,0,0,1,.61-2l5.1,2.91a4,4,0,0,0-.6,2v6.51Z" style="opacity:0.15"></path><path d="M287.26,299.38a3,3,0,0,0-1.12,2.38c0,1,.5,1.44,1.12,1.08a3,3,0,0,0,1.13-2.38C288.39,299.51,287.88,299,287.26,299.38Z" style="fill:#fafafa"></path><path d="M291.31,297a3,3,0,0,0-1.13,2.38c0,1,.51,1.44,1.13,1.08a3,3,0,0,0,1.12-2.38C292.43,297.17,291.93,296.69,291.31,297Z" style="fill:#fafafa"></path><path d="M295.35,294.7a3,3,0,0,0-1.12,2.38c0,1,.5,1.44,1.12,1.08a3,3,0,0,0,1.13-2.37C296.48,294.83,296,294.35,295.35,294.7Z" style="fill:#fafafa"></path><path d="M257,378.52l-.25-.15L252,375.64a1.75,1.75,0,0,1-.61-.68,2.49,2.49,0,0,1-.23-1V320.39l5.11,2.94v53.52a2.64,2.64,0,0,0,.21,1A1.92,1.92,0,0,0,257,378.52Z" style="fill:#37474f"></path><path d="M280.18,326.14,293,318.75c.4-.23.72-.07.72.36a1.51,1.51,0,0,1-.72,1.18l-12.78,7.4c-.4.23-.72.07-.72-.36A1.53,1.53,0,0,1,280.18,326.14Z" style="fill:#BA68C8"></path><path d="M280.18,320.57l12.78-7.4c.4-.23.72-.07.72.36a1.53,1.53,0,0,1-.72,1.19l-12.78,7.39c-.4.23-.72.07-.72-.36A1.51,1.51,0,0,1,280.18,320.57Z" style="fill:#BA68C8"></path><path d="M280.18,315l12.78-7.4c.4-.23.72-.06.72.36a1.53,1.53,0,0,1-.72,1.19l-12.78,7.4c-.4.23-.72.06-.72-.36A1.53,1.53,0,0,1,280.18,315Z" style="fill:#BA68C8"></path><path d="M272.56,349.09,293,337.27c.4-.22.72-.06.72.37a1.53,1.53,0,0,1-.72,1.18l-20.4,11.82c-.4.22-.72.06-.72-.37A1.53,1.53,0,0,1,272.56,349.09Z" style="fill:#fafafa"></path><path d="M272.56,361.47,293,349.69c.4-.23.72-.07.72.36a1.53,1.53,0,0,1-.72,1.19L272.56,363c-.4.23-.72.07-.72-.36A1.53,1.53,0,0,1,272.56,361.47Z" style="fill:#fafafa"></path><path d="M261.84,342.91l19.49-11.26c.39-.22.71-.06.71.37a1.54,1.54,0,0,1-.71,1.18l-19.49,11.26c-.4.23-.72.07-.72-.36A1.53,1.53,0,0,1,261.84,342.91Z" style="fill:#BA68C8"></path><path d="M261.84,342.91l19.49-11.26c.39-.22.71-.06.71.37a1.54,1.54,0,0,1-.71,1.18l-19.49,11.26c-.4.23-.72.07-.72-.36A1.53,1.53,0,0,1,261.84,342.91Z" style="fill:#fff;opacity:0.6000000000000001"></path><path d="M261.84,349.09l6.61-3.82c.39-.23.71-.07.71.36a1.55,1.55,0,0,1-.71,1.19l-6.61,3.82c-.4.23-.72.06-.72-.36A1.53,1.53,0,0,1,261.84,349.09Z" style="fill:#BA68C8"></path><path d="M261.84,349.09l6.61-3.82c.39-.23.71-.07.71.36a1.55,1.55,0,0,1-.71,1.19l-6.61,3.82c-.4.23-.72.06-.72-.36A1.53,1.53,0,0,1,261.84,349.09Z" style="fill:#fff;opacity:0.6000000000000001"></path><path d="M261.84,355.28l6.61-3.82c.39-.23.71-.07.71.36a1.55,1.55,0,0,1-.71,1.19l-6.61,3.82c-.4.23-.72.06-.72-.36A1.53,1.53,0,0,1,261.84,355.28Z" style="fill:#BA68C8"></path><path d="M261.84,355.28l6.61-3.82c.39-.23.71-.07.71.36a1.55,1.55,0,0,1-.71,1.19l-6.61,3.82c-.4.23-.72.06-.72-.36A1.53,1.53,0,0,1,261.84,355.28Z" style="fill:#fff;opacity:0.6000000000000001"></path><path d="M261.84,361.47l6.61-3.82c.39-.23.71-.07.71.36a1.55,1.55,0,0,1-.71,1.19L261.84,363c-.4.22-.72.06-.72-.36A1.53,1.53,0,0,1,261.84,361.47Z" style="fill:#BA68C8"></path><path d="M261.84,361.47l6.61-3.82c.39-.23.71-.07.71.36a1.53,1.53,0,0,1-.71,1.18L261.84,363c-.4.23-.72.07-.72-.36A1.53,1.53,0,0,1,261.84,361.47Z" style="fill:#fff;opacity:0.6000000000000001"></path><path d="M272.56,355.28,293,343.49c.4-.23.72-.06.72.36A1.53,1.53,0,0,1,293,345l-20.4,11.79c-.4.22-.72.06-.72-.37A1.53,1.53,0,0,1,272.56,355.28Z" style="fill:#BA68C8;opacity:0.6000000000000001"></path><path d="M272.56,355.28,293,343.49c.4-.23.72-.06.72.36A1.53,1.53,0,0,1,293,345l-20.4,11.79c-.4.22-.72.06-.72-.37A1.53,1.53,0,0,1,272.56,355.28Z" style="fill:#fff;opacity:0.6000000000000001"></path><path d="M261.84,367.66l6.61-3.82c.39-.23.71-.07.71.36a1.51,1.51,0,0,1-.71,1.18l-6.61,3.83c-.4.22-.72.06-.72-.37A1.53,1.53,0,0,1,261.84,367.66Z" style="fill:#BA68C8"></path><path d="M261.84,367.66l6.61-3.82c.39-.23.71-.07.71.36a1.51,1.51,0,0,1-.71,1.18l-6.61,3.83c-.4.22-.72.06-.72-.37A1.53,1.53,0,0,1,261.84,367.66Z" style="fill:#fff;opacity:0.6000000000000001"></path><path d="M284.09,330.06,293,325c.4-.23.72-.07.72.36a1.53,1.53,0,0,1-.72,1.19l-8.87,5.1c-.39.23-.71.07-.71-.36A1.51,1.51,0,0,1,284.09,330.06Z" style="fill:#BA68C8"></path><path d="M284.09,330.06,293,325c.4-.23.72-.07.72.36a1.53,1.53,0,0,1-.72,1.19l-8.87,5.1c-.39.23-.71.07-.71-.36A1.51,1.51,0,0,1,284.09,330.06Z" style="fill:#fff;opacity:0.6000000000000001"></path><path d="M272.56,342.9,293,331.1c.4-.23.72-.06.72.36a1.53,1.53,0,0,1-.72,1.19l-20.4,11.8c-.4.23-.72.07-.72-.36A1.53,1.53,0,0,1,272.56,342.9Z" style="fill:#BA68C8"></path><path d="M272.56,342.9,293,331.1c.4-.23.72-.06.72.36a1.53,1.53,0,0,1-.72,1.19l-20.4,11.8c-.4.23-.72.07-.72-.36A1.53,1.53,0,0,1,272.56,342.9Z" style="fill:#fff;opacity:0.6000000000000001"></path><g id="freepik----inject-72"><path d="M261.12,331.59a1,1,0,0,1,.08-.41,4,4,0,0,1,.21-.39l3.94-6.38.07-.07,0,0q.09-.06.15,0a.25.25,0,0,1,.06.19V327a1.13,1.13,0,0,1-.11.51c-.08.14-.15.25-.21.34l-1.72,2.65,1.72.67a1,1,0,0,1,.21.1c.07,0,.11.17.11.37v2.46a.58.58,0,0,1-.06.26.35.35,0,0,1-.15.18l0,0h-.07l-3.94-1.82a.57.57,0,0,1-.21-.15.49.49,0,0,1-.08-.33Z" style="fill:#fff"></path><path d="M269.72,320.78a3.12,3.12,0,0,1,.15-.39.67.67,0,0,1,.29-.31l1.32-.77a.12.12,0,0,1,.15,0,.24.24,0,0,1,.07.2,1,1,0,0,1,0,.15l-3.34,14.21a1.37,1.37,0,0,1-.14.38.72.72,0,0,1-.29.33l-1.29.74a.12.12,0,0,1-.16,0,.27.27,0,0,1-.06-.2.78.78,0,0,1,0-.14Z" style="fill:#fff"></path><path d="M277,323.08a1.09,1.09,0,0,1-.07.42,3.05,3.05,0,0,1-.21.38l-3.95,6.38a.81.81,0,0,1-.06.08l-.05,0a.11.11,0,0,1-.14,0,.28.28,0,0,1-.06-.2v-2.46a1,1,0,0,1,.11-.5,3.5,3.5,0,0,1,.2-.33l1.73-2.67-1.73-.66-.2-.1c-.08-.06-.11-.18-.11-.39V320.6a.62.62,0,0,1,.06-.26.35.35,0,0,1,.14-.17l.05,0h.06l3.95,1.82a.7.7,0,0,1,.21.14.54.54,0,0,1,.07.33Z" style="fill:#fff"></path></g></g><g id="freepik--code--inject-72"><g id="freepik--code-bubble--inject-72"><path d="M448.5,50.4v60.5a4.38,4.38,0,0,1-2,3.44L408.19,136.5a1.19,1.19,0,0,1-.65.18,1.15,1.15,0,0,1-.26,0,.49.49,0,0,1-.17-.06,1,1,0,0,1-.17-.09,1.66,1.66,0,0,1-.53-.66,2.52,2.52,0,0,1-.21-1v-60a4.44,4.44,0,0,1,2-3.45l38.32-22.12a1.46,1.46,0,0,1,1.34-.17,1,1,0,0,1,.17.1h0a.53.53,0,0,1,.13.13s0,0,.06.07l.07.11a1.15,1.15,0,0,1,.12.25c0,.06,0,.11,0,.18a.06.06,0,0,1,0,0,1.13,1.13,0,0,1,0,.18A2.09,2.09,0,0,1,448.5,50.4Z" style="fill:#455a64"></path><path d="M447.85,49.08a1.46,1.46,0,0,0-1.34.17L408.19,71.37a4.44,4.44,0,0,0-2,3.45v6.5l-5.1-2.94V71.92a4.42,4.42,0,0,1,2-3.44l38.33-22.12a1.39,1.39,0,0,1,1.44-.12C443.21,46.46,447.43,48.86,447.85,49.08Z" style="fill:#BA68C8"></path><path d="M448.5,50.39c0-1.26-.89-1.77-2-1.14L408.19,71.37a4.43,4.43,0,0,0-2,3.45v6.5L448.5,56.91Z" style="fill:#BA68C8"></path><g style="opacity:0.30000000000000004"><path d="M446.51,49.25,408.2,71.37a4,4,0,0,0-1.4,1.48l-5.1-2.92a4,4,0,0,1,1.39-1.45l38.32-22.12a1.39,1.39,0,0,1,1.44-.12c.36.22,4.57,2.61,5,2.84A1.44,1.44,0,0,0,446.51,49.25Z" style="fill:#fff"></path></g><path d="M401.1,78.39V71.92a4.09,4.09,0,0,1,.6-2l5.1,2.91a4,4,0,0,0-.59,2v6.5Z" style="opacity:0.15"></path><path d="M437.22,57.37a3,3,0,0,0-1.13,2.38c0,1,.51,1.44,1.13,1.08a3,3,0,0,0,1.12-2.38C438.34,57.49,437.84,57,437.22,57.37Z" style="fill:#fafafa"></path><path d="M441.26,55a3,3,0,0,0-1.12,2.38c0,1,.5,1.44,1.12,1.08a3,3,0,0,0,1.13-2.38C442.39,55.16,441.88,54.67,441.26,55Z" style="fill:#fafafa"></path><path d="M445.31,52.69a3,3,0,0,0-1.13,2.38c0,1,.51,1.44,1.13,1.08a3,3,0,0,0,1.12-2.38C446.43,52.82,445.93,52.33,445.31,52.69Z" style="fill:#fafafa"></path><path d="M406.94,136.5l-.25-.14-4.76-2.73a1.77,1.77,0,0,1-.6-.68,2.38,2.38,0,0,1-.23-1V78.38l5.1,2.94v53.51a2.74,2.74,0,0,0,.21,1A1.79,1.79,0,0,0,406.94,136.5Z" style="fill:#37474f"></path><path d="M430.13,84.13l12.79-7.4c.39-.23.71-.06.71.36a1.55,1.55,0,0,1-.71,1.19l-12.79,7.4c-.39.22-.71.06-.71-.37A1.54,1.54,0,0,1,430.13,84.13Z" style="fill:#BA68C8"></path><path d="M430.13,78.55l12.79-7.4c.39-.22.71-.06.71.37a1.54,1.54,0,0,1-.71,1.18l-12.79,7.4c-.39.23-.71.07-.71-.36A1.55,1.55,0,0,1,430.13,78.55Z" style="fill:#BA68C8"></path><path d="M430.13,73l12.79-7.4c.39-.23.71-.07.71.36a1.55,1.55,0,0,1-.71,1.19l-12.79,7.39c-.39.23-.71.07-.71-.36A1.51,1.51,0,0,1,430.13,73Z" style="fill:#BA68C8"></path><path d="M422.51,107.07l20.41-11.81c.39-.23.71-.07.71.36a1.55,1.55,0,0,1-.71,1.19l-20.41,11.81c-.39.23-.71.07-.71-.36A1.55,1.55,0,0,1,422.51,107.07Z" style="fill:#fafafa"></path><path d="M422.51,119.45l20.41-11.78c.39-.22.71-.06.71.36a1.55,1.55,0,0,1-.71,1.19L422.51,121c-.39.23-.71.07-.71-.36A1.55,1.55,0,0,1,422.51,119.45Z" style="fill:#fafafa"></path><path d="M411.79,100.9l19.49-11.26c.39-.23.71-.07.71.36a1.55,1.55,0,0,1-.71,1.19l-19.49,11.26c-.39.22-.71.06-.71-.36A1.55,1.55,0,0,1,411.79,100.9Z" style="fill:#BA68C8"></path><path d="M411.79,100.9l19.49-11.26c.39-.23.71-.07.71.36a1.55,1.55,0,0,1-.71,1.19l-19.49,11.26c-.39.22-.71.06-.71-.36A1.55,1.55,0,0,1,411.79,100.9Z" style="fill:#fff;opacity:0.6000000000000001"></path><path d="M411.79,107.08l6.61-3.82c.4-.23.72-.07.72.36a1.53,1.53,0,0,1-.72,1.18l-6.61,3.82c-.39.23-.71.07-.71-.36A1.53,1.53,0,0,1,411.79,107.08Z" style="fill:#BA68C8"></path><path d="M411.79,107.08l6.61-3.82c.4-.23.72-.07.72.36a1.53,1.53,0,0,1-.72,1.18l-6.61,3.82c-.39.23-.71.07-.71-.36A1.53,1.53,0,0,1,411.79,107.08Z" style="fill:#fff;opacity:0.6000000000000001"></path><path d="M411.79,113.27l6.61-3.83c.4-.22.72-.06.72.37a1.53,1.53,0,0,1-.72,1.18l-6.61,3.82c-.39.23-.71.07-.71-.36A1.51,1.51,0,0,1,411.79,113.27Z" style="fill:#BA68C8"></path><path d="M411.79,113.27l6.61-3.83c.4-.22.72-.06.72.37a1.53,1.53,0,0,1-.72,1.18l-6.61,3.82c-.39.23-.71.07-.71-.36A1.51,1.51,0,0,1,411.79,113.27Z" style="fill:#fff;opacity:0.6000000000000001"></path><path d="M411.79,119.45l6.61-3.82c.4-.22.72-.06.72.36a1.53,1.53,0,0,1-.72,1.19L411.79,121c-.39.23-.71.07-.71-.36A1.55,1.55,0,0,1,411.79,119.45Z" style="fill:#BA68C8"></path><path d="M411.79,119.45l6.61-3.82c.4-.23.72-.06.72.36a1.53,1.53,0,0,1-.72,1.19L411.79,121c-.39.23-.71.07-.71-.36A1.55,1.55,0,0,1,411.79,119.45Z" style="fill:#fff;opacity:0.6000000000000001"></path><path d="M422.51,113.26l20.41-11.78c.39-.23.71-.07.71.36a1.51,1.51,0,0,1-.71,1.18l-20.41,11.79c-.39.23-.71.07-.71-.36A1.55,1.55,0,0,1,422.51,113.26Z" style="fill:#BA68C8;opacity:0.6000000000000001"></path><path d="M422.51,113.26l20.41-11.78c.39-.23.71-.07.71.36a1.51,1.51,0,0,1-.71,1.18l-20.41,11.79c-.39.23-.71.07-.71-.36A1.55,1.55,0,0,1,422.51,113.26Z" style="fill:#fff;opacity:0.6000000000000001"></path><path d="M411.79,125.64l6.61-3.82c.4-.23.72-.06.72.36a1.53,1.53,0,0,1-.72,1.19l-6.61,3.82c-.39.23-.71.07-.71-.36A1.55,1.55,0,0,1,411.79,125.64Z" style="fill:#BA68C8"></path><path d="M411.79,125.64l6.61-3.82c.4-.23.72-.06.72.36a1.53,1.53,0,0,1-.72,1.19l-6.61,3.82c-.39.23-.71.07-.71-.36A1.55,1.55,0,0,1,411.79,125.64Z" style="fill:#fff;opacity:0.6000000000000001"></path><path d="M434.05,88l8.87-5.11c.39-.22.71-.06.71.37a1.54,1.54,0,0,1-.71,1.18l-8.87,5.11c-.4.23-.72.06-.72-.36A1.53,1.53,0,0,1,434.05,88Z" style="fill:#BA68C8"></path><path d="M434.05,88l8.87-5.11c.39-.22.71-.06.71.37a1.54,1.54,0,0,1-.71,1.18l-8.87,5.11c-.4.23-.72.06-.72-.36A1.53,1.53,0,0,1,434.05,88Z" style="fill:#fff;opacity:0.6000000000000001"></path><path d="M422.51,100.89l20.41-11.8c.39-.23.71-.07.71.36a1.51,1.51,0,0,1-.71,1.18l-20.41,11.81c-.39.22-.71.06-.71-.37A1.54,1.54,0,0,1,422.51,100.89Z" style="fill:#BA68C8"></path><path d="M422.51,100.89l20.41-11.8c.39-.23.71-.07.71.36a1.51,1.51,0,0,1-.71,1.18l-20.41,11.81c-.39.22-.71.06-.71-.37A1.54,1.54,0,0,1,422.51,100.89Z" style="fill:#fff;opacity:0.6000000000000001"></path><g id="freepik----inject-72"><path d="M411.08,89.58a1,1,0,0,1,.07-.41,2.54,2.54,0,0,1,.21-.39l3.95-6.38a.81.81,0,0,1,.06-.08l.05,0c.06,0,.11,0,.14,0a.24.24,0,0,1,.06.19V85a1,1,0,0,1-.11.51,2.36,2.36,0,0,1-.2.34l-1.73,2.65,1.73.68a.69.69,0,0,1,.2.09c.08,0,.11.18.11.38v2.46a.58.58,0,0,1-.06.26.37.37,0,0,1-.14.18h-.11l-3.95-1.82a.55.55,0,0,1-.21-.14.54.54,0,0,1-.07-.33Z" style="fill:#fff"></path><path d="M419.68,78.77a1.8,1.8,0,0,1,.15-.4.7.7,0,0,1,.28-.31l1.32-.76a.12.12,0,0,1,.16,0,.28.28,0,0,1,.06.2,1,1,0,0,1,0,.15L418.3,91.87a2,2,0,0,1-.14.38.72.72,0,0,1-.3.32l-1.29.75a.12.12,0,0,1-.15,0,.28.28,0,0,1-.07-.2,1,1,0,0,1,0-.15Z" style="fill:#fff"></path><path d="M426.93,81.07a1,1,0,0,1-.08.41,1.89,1.89,0,0,1-.21.39l-3.94,6.38-.07.07s0,0,0,0a.12.12,0,0,1-.15,0,.25.25,0,0,1-.06-.19V85.7a1.1,1.1,0,0,1,.11-.51l.21-.33,1.72-2.67-1.72-.65a1.08,1.08,0,0,1-.21-.11c-.07-.05-.11-.18-.11-.38V78.59a.58.58,0,0,1,.06-.26.39.39,0,0,1,.15-.18l0,0h.07L426.64,80a.41.41,0,0,1,.21.14.53.53,0,0,1,.08.33Z" style="fill:#fff"></path></g></g><g id="freepik--check-mark--inject-72"><g id="freepik--Circle--inject-72"><path d="M468.39,99.5h0l-5.13-2.95h0c-2.39-1.21-5.59-.85-9,1.38-6.91,4.47-12.18,14.75-11.76,23,.2,4.1,1.78,6.91,4.17,8.14h0l5.13,2.95h0c2.39,1.22,5.59.85,9-1.37,6.91-4.47,12.17-14.76,11.76-23C472.36,103.55,470.78,100.74,468.39,99.5Z" style="fill:#BA68C8"></path><g style="opacity:0.30000000000000004"><path d="M468.39,99.5h0l-5.13-2.95h0c-2.39-1.21-5.59-.85-9,1.38-6.91,4.47-12.18,14.75-11.76,23,.2,4.1,1.78,6.91,4.17,8.14h0l5.13,2.95h0c2.39,1.22,5.59.85,9-1.37,6.91-4.47,12.17-14.76,11.76-23C472.36,103.55,470.78,100.74,468.39,99.5Z" style="fill:#fff"></path></g><path d="M451.56,131.89,446.61,129h0l0,0c-2.39-1.24-4-4-4.17-8.14a25.57,25.57,0,0,1,2.47-11.52l0-.08,5.1,3a25.62,25.62,0,0,0-2.48,11.53C447.74,127.84,449.26,130.61,451.56,131.89Z" style="fill:#BA68C8"></path><path d="M451.56,131.89,446.61,129h0l0,0c-2.39-1.24-4-4-4.17-8.14a25.57,25.57,0,0,1,2.47-11.52l0-.08,5.1,3a25.62,25.62,0,0,0-2.48,11.53C447.74,127.84,449.26,130.61,451.56,131.89Z" style="opacity:0.15"></path><path d="M460.81,130.62c6.91-4.47,12.17-14.76,11.76-23s-6.35-11.25-13.27-6.79-12.17,14.76-11.76,23S453.9,135.09,460.81,130.62Z" style="fill:#BA68C8"></path></g><path d="M467.12,102.57l-.13-.06a2,2,0,0,0-2.69.93L456,120.63l-.47-.52a1.83,1.83,0,0,0-.47-.37l-1.48-.86A2,2,0,0,0,451,122l3.72,4a2,2,0,0,0,.48.38l1.47.85a2,2,0,0,0,.9.27,1.82,1.82,0,0,0,.4,0,2,2,0,0,0,1.52-1.11l9.87-20.33a2,2,0,0,0-.8-2.63Z" style="fill:#ebebeb"></path><path d="M456.71,127.25l-1.47-.85a2,2,0,0,1-.48-.38L451,122a1.78,1.78,0,0,1-.38-.61l1.47.85a2.15,2.15,0,0,0,.39.62l3.72,4A1.91,1.91,0,0,0,456.71,127.25Z" style="fill:#e0e0e0"></path><path d="M456.71,127.25l-1.47-.85a2,2,0,0,1-.48-.38L451,122a1.78,1.78,0,0,1-.38-.61l1.47.85a2.15,2.15,0,0,0,.39.62l3.72,4A1.91,1.91,0,0,0,456.71,127.25Z" style="opacity:0.1"></path><path d="M466.24,103.67a2,2,0,0,0-.46.62L457.19,122,456,120.63l8.35-17.19a1.92,1.92,0,0,1,.47-.62Z" style="fill:#e0e0e0"></path><path d="M466.24,103.67a2,2,0,0,0-.46.62L457.19,122,456,120.63l8.35-17.19a1.92,1.92,0,0,1,.47-.62Z" style="opacity:0.1"></path><path id="freepik--Check--inject-72" d="M468.47,103.36a2,2,0,0,0-2.69.93L457.19,122l-1.71-1.86a2,2,0,1,0-3,2.74l3.72,4a2,2,0,0,0,1.37.65,1.82,1.82,0,0,0,.4,0,2,2,0,0,0,1.52-1.11l9.87-20.33A2,2,0,0,0,468.47,103.36Z" style="fill:#fafafa"></path></g></g><g id="freepik--code--inject-72"><g id="freepik--code-bubble--inject-72"><path d="M319.88,50.4v60.5a4.4,4.4,0,0,1-2,3.44L279.57,136.5a1.24,1.24,0,0,1-.66.18,1,1,0,0,1-.25,0,.49.49,0,0,1-.17-.06,1,1,0,0,1-.18-.09,1.73,1.73,0,0,1-.52-.66,2.36,2.36,0,0,1-.21-1v-60a4.41,4.41,0,0,1,2-3.45l38.32-22.12a1.44,1.44,0,0,1,1.33-.17,1,1,0,0,1,.17.1h0l.13.13.06.07a.6.6,0,0,1,.06.11,1.15,1.15,0,0,1,.12.25,1,1,0,0,1,.05.18s0,0,0,0a.57.57,0,0,1,0,.18A2.11,2.11,0,0,1,319.88,50.4Z" style="fill:#455a64"></path><path d="M319.22,49.08a1.44,1.44,0,0,0-1.33.17L279.57,71.37a4.41,4.41,0,0,0-2,3.45v6.5l-5.11-2.94V71.92a4.41,4.41,0,0,1,2-3.44l38.32-22.12a1.39,1.39,0,0,1,1.44-.12C314.58,46.46,318.8,48.86,319.22,49.08Z" style="fill:#BA68C8"></path><path d="M319.87,50.39c0-1.26-.89-1.77-2-1.14L279.57,71.37a4.41,4.41,0,0,0-2,3.45v6.5l42.29-24.41Z" style="fill:#BA68C8"></path><g style="opacity:0.30000000000000004"><path d="M317.89,49.25,279.57,71.37a4.16,4.16,0,0,0-1.4,1.48l-5.09-2.92a3.94,3.94,0,0,1,1.38-1.45l38.32-22.12a1.39,1.39,0,0,1,1.44-.12c.36.22,4.58,2.61,5,2.84A1.44,1.44,0,0,0,317.89,49.25Z" style="fill:#fff"></path></g><path d="M272.47,78.39V71.92a4.11,4.11,0,0,1,.61-2l5.1,2.91a4.06,4.06,0,0,0-.6,2v6.5Z" style="opacity:0.15"></path><path d="M308.59,57.37a3,3,0,0,0-1.12,2.38c0,1,.5,1.44,1.12,1.08a3,3,0,0,0,1.12-2.38C309.71,57.49,309.21,57,308.59,57.37Z" style="fill:#fafafa"></path><path d="M312.64,55a2.94,2.94,0,0,0-1.13,2.38c0,1,.5,1.44,1.13,1.08a3,3,0,0,0,1.12-2.38C313.76,55.16,313.26,54.67,312.64,55Z" style="fill:#fafafa"></path><path d="M316.68,52.69a3,3,0,0,0-1.12,2.38c0,1,.5,1.44,1.12,1.08a3,3,0,0,0,1.12-2.38C317.8,52.82,317.3,52.33,316.68,52.69Z" style="fill:#fafafa"></path><path d="M278.31,136.5l-.25-.14-4.75-2.73a1.73,1.73,0,0,1-.61-.68,2.53,2.53,0,0,1-.23-1V78.38l5.11,2.94v53.51a2.55,2.55,0,0,0,.21,1A1.82,1.82,0,0,0,278.31,136.5Z" style="fill:#37474f"></path><path d="M301.51,84.13l12.78-7.4c.4-.23.72-.06.72.36a1.53,1.53,0,0,1-.72,1.19l-12.78,7.4c-.4.22-.72.06-.72-.37A1.53,1.53,0,0,1,301.51,84.13Z" style="fill:#BA68C8"></path><path d="M301.51,78.55l12.78-7.4c.4-.22.72-.06.72.37a1.53,1.53,0,0,1-.72,1.18l-12.78,7.4c-.4.23-.72.07-.72-.36A1.53,1.53,0,0,1,301.51,78.55Z" style="fill:#BA68C8"></path><path d="M301.51,73l12.78-7.4c.4-.23.72-.07.72.36a1.53,1.53,0,0,1-.72,1.19l-12.78,7.39c-.4.23-.72.07-.72-.36A1.5,1.5,0,0,1,301.51,73Z" style="fill:#BA68C8"></path><path d="M293.88,107.07l20.41-11.81c.4-.23.72-.07.72.36a1.53,1.53,0,0,1-.72,1.19l-20.41,11.81c-.39.23-.71.07-.71-.36A1.55,1.55,0,0,1,293.88,107.07Z" style="fill:#fafafa"></path><path d="M293.88,119.45l20.41-11.78c.4-.22.72-.06.72.36a1.53,1.53,0,0,1-.72,1.19L293.88,121c-.39.23-.71.07-.71-.36A1.55,1.55,0,0,1,293.88,119.45Z" style="fill:#fafafa"></path><path d="M283.16,100.9l19.49-11.26c.4-.23.72-.07.72.36a1.53,1.53,0,0,1-.72,1.19l-19.49,11.26c-.39.22-.71.06-.71-.36A1.55,1.55,0,0,1,283.16,100.9Z" style="fill:#BA68C8"></path><path d="M283.16,100.9l19.49-11.26c.4-.23.72-.07.72.36a1.53,1.53,0,0,1-.72,1.19l-19.49,11.26c-.39.22-.71.06-.71-.36A1.55,1.55,0,0,1,283.16,100.9Z" style="fill:#fff;opacity:0.6000000000000001"></path><path d="M283.16,107.08l6.62-3.82c.39-.23.71-.07.71.36a1.54,1.54,0,0,1-.71,1.18l-6.62,3.82c-.39.23-.71.07-.71-.36A1.53,1.53,0,0,1,283.16,107.08Z" style="fill:#BA68C8"></path><path d="M283.16,107.08l6.62-3.82c.39-.23.71-.07.71.36a1.54,1.54,0,0,1-.71,1.18l-6.62,3.82c-.39.23-.71.07-.71-.36A1.53,1.53,0,0,1,283.16,107.08Z" style="fill:#fff;opacity:0.6000000000000001"></path><path d="M283.16,113.27l6.62-3.83c.39-.22.71-.06.71.37a1.54,1.54,0,0,1-.71,1.18l-6.62,3.82c-.39.23-.71.07-.71-.36A1.51,1.51,0,0,1,283.16,113.27Z" style="fill:#BA68C8"></path><path d="M283.16,113.27l6.62-3.83c.39-.22.71-.06.71.37a1.54,1.54,0,0,1-.71,1.18l-6.62,3.82c-.39.23-.71.07-.71-.36A1.51,1.51,0,0,1,283.16,113.27Z" style="fill:#fff;opacity:0.6000000000000001"></path><path d="M283.16,119.45l6.62-3.82c.39-.22.71-.06.71.36a1.55,1.55,0,0,1-.71,1.19L283.16,121c-.39.23-.71.07-.71-.36A1.55,1.55,0,0,1,283.16,119.45Z" style="fill:#BA68C8"></path><path d="M283.16,119.45l6.62-3.82c.39-.23.71-.06.71.36a1.55,1.55,0,0,1-.71,1.19L283.16,121c-.39.23-.71.07-.71-.36A1.55,1.55,0,0,1,283.16,119.45Z" style="fill:#fff;opacity:0.6000000000000001"></path><path d="M293.88,113.26l20.41-11.78c.4-.23.72-.07.72.36a1.5,1.5,0,0,1-.72,1.18l-20.41,11.79c-.39.23-.71.07-.71-.36A1.55,1.55,0,0,1,293.88,113.26Z" style="fill:#BA68C8;opacity:0.6000000000000001"></path><path d="M293.88,113.26l20.41-11.78c.4-.23.72-.07.72.36a1.5,1.5,0,0,1-.72,1.18l-20.41,11.79c-.39.23-.71.07-.71-.36A1.55,1.55,0,0,1,293.88,113.26Z" style="fill:#fff;opacity:0.6000000000000001"></path><path d="M283.16,125.64l6.62-3.82c.39-.23.71-.06.71.36a1.55,1.55,0,0,1-.71,1.19l-6.62,3.82c-.39.23-.71.07-.71-.36A1.55,1.55,0,0,1,283.16,125.64Z" style="fill:#BA68C8"></path><path d="M283.16,125.64l6.62-3.82c.39-.23.71-.06.71.36a1.55,1.55,0,0,1-.71,1.19l-6.62,3.82c-.39.23-.71.07-.71-.36A1.55,1.55,0,0,1,283.16,125.64Z" style="fill:#fff;opacity:0.6000000000000001"></path><path d="M305.42,88l8.87-5.11c.4-.22.72-.06.72.37a1.53,1.53,0,0,1-.72,1.18l-8.87,5.11c-.39.23-.71.06-.71-.36A1.55,1.55,0,0,1,305.42,88Z" style="fill:#BA68C8"></path><path d="M305.42,88l8.87-5.11c.4-.22.72-.06.72.37a1.53,1.53,0,0,1-.72,1.18l-8.87,5.11c-.39.23-.71.06-.71-.36A1.55,1.55,0,0,1,305.42,88Z" style="fill:#fff;opacity:0.6000000000000001"></path><path d="M293.88,100.89l20.41-11.8c.4-.23.72-.07.72.36a1.5,1.5,0,0,1-.72,1.18l-20.41,11.81c-.39.22-.71.06-.71-.37A1.54,1.54,0,0,1,293.88,100.89Z" style="fill:#BA68C8"></path><path d="M293.88,100.89l20.41-11.8c.4-.23.72-.07.72.36a1.5,1.5,0,0,1-.72,1.18l-20.41,11.81c-.39.22-.71.06-.71-.37A1.54,1.54,0,0,1,293.88,100.89Z" style="fill:#fff;opacity:0.6000000000000001"></path><g id="freepik----inject-72"><path d="M282.45,89.58a1.21,1.21,0,0,1,.07-.41,2,2,0,0,1,.22-.39l3.94-6.38.07-.08,0,0a.12.12,0,0,1,.15,0,.24.24,0,0,1,.06.19V85a1,1,0,0,1-.12.51,2.36,2.36,0,0,1-.2.34L285,88.45l1.72.68a.69.69,0,0,1,.2.09c.08,0,.12.18.12.38v2.46a.58.58,0,0,1-.06.26.45.45,0,0,1-.15.18h-.11l-3.94-1.82a.52.52,0,0,1-.22-.14.62.62,0,0,1-.07-.33Z" style="fill:#fff"></path><path d="M291.05,78.77a2.48,2.48,0,0,1,.15-.4.72.72,0,0,1,.29-.31l1.32-.76a.11.11,0,0,1,.15,0,.28.28,0,0,1,.07.2,1,1,0,0,1,0,.15l-3.34,14.21a1.49,1.49,0,0,1-.14.38.65.65,0,0,1-.29.32l-1.3.75a.12.12,0,0,1-.15,0,.28.28,0,0,1-.06-.2.44.44,0,0,1,0-.15Z" style="fill:#fff"></path><path d="M298.3,81.07a1,1,0,0,1-.07.41,2.54,2.54,0,0,1-.21.39l-3.95,6.38-.06.07-.05,0a.12.12,0,0,1-.15,0,.26.26,0,0,1-.05-.19V85.7a1,1,0,0,1,.11-.51c.07-.13.14-.24.2-.33l1.73-2.67-1.73-.65a.81.81,0,0,1-.2-.11c-.08-.05-.11-.18-.11-.38V78.59a.58.58,0,0,1,.05-.26.39.39,0,0,1,.15-.18l.05,0h.06L298,80a.46.46,0,0,1,.21.14.54.54,0,0,1,.07.33Z" style="fill:#fff"></path></g></g><g id="freepik--check-mark--inject-72"><path d="M340.35,111l-9.23-16a5.17,5.17,0,0,0-1.71-1.91l-4.6-2.66c-1.46-.85-2.95,0-3.8,2.45l-11.54,33.32c-.66,1.89-.47,3.15.34,3.6s3.76,2.18,4.57,2.64,1.81.22,3.27-.63l20.26-11.69A6.68,6.68,0,0,0,340.35,111Z" style="fill:#BA68C8"></path><g style="opacity:0.30000000000000004"><path d="M340.35,111l-9.23-16a5.17,5.17,0,0,0-1.71-1.91l-4.6-2.66c-1.46-.85-2.95,0-3.8,2.45l-11.54,33.32c-.66,1.89-.47,3.15.34,3.6s3.76,2.18,4.57,2.64,1.81.22,3.27-.63l20.26-11.69A6.68,6.68,0,0,0,340.35,111Z" style="fill:#fff"></path></g><path d="M311.42,120.6l-1.95,5.64c-.66,1.89-.47,3.15.34,3.6s3.76,2.18,4.57,2.64,1.81.22,3.27-.63l1.24-.72,2-5Z" style="fill:#BA68C8"></path><path d="M311.42,120.6l-1.95,5.64c-.66,1.89-.47,3.15.34,3.6s3.76,2.18,4.57,2.64,1.81.22,3.27-.63l1.24-.72,2-5Z" style="opacity:0.15"></path><path d="M325.59,95.56l-11.54,33.32c-1.2,3.47.42,4.81,3.6,3l20.26-11.69a6.68,6.68,0,0,0,2.44-9.13l-9.23-16C329.28,91.85,326.79,92.09,325.59,95.56Z" style="fill:#BA68C8"></path><path d="M329.55,99.22a.38.38,0,0,0-.39,0l-3.32,1.92a1.18,1.18,0,0,0-.54,1L326,115.3a.42.42,0,0,0,.18.36l1.27.74a.4.4,0,0,0,.43,0l1.75-1a1.35,1.35,0,0,0,.61-1l.72-14a.4.4,0,0,0-.16-.38Z" style="fill:#e0e0e0"></path><path d="M327.43,116.38c-.2-.12-1.14-.65-1.24-.72a.44.44,0,0,1-.18-.36l-.72-13.13a1.07,1.07,0,0,1,.15-.56l1.27.74a1.07,1.07,0,0,0-.15.56l.72,13.13A.44.44,0,0,0,327.43,116.38Z" style="opacity:0.1"></path><path d="M328.66,116.8a1.13,1.13,0,0,0-1.16.11,4.24,4.24,0,0,0-1.79,3.42,1.66,1.66,0,0,0,.62,1.46l1.27.73a1.13,1.13,0,0,0,1.16-.11,4.21,4.21,0,0,0,1.79-3.42,1.66,1.66,0,0,0-.62-1.46Z" style="fill:#e0e0e0"></path><path d="M328.66,116.8a1.13,1.13,0,0,0-1.16.11,4.24,4.24,0,0,0-1.79,3.42,1.66,1.66,0,0,0,.62,1.46l1.27.73a1.13,1.13,0,0,0,1.16-.11,4.21,4.21,0,0,0,1.79-3.42,1.66,1.66,0,0,0-.62-1.46Z" style="opacity:0.1"></path><path d="M329.64,115.35l-1.75,1a.38.38,0,0,1-.62-.33l-.71-13.12a1.22,1.22,0,0,1,.54-1l3.32-1.91c.32-.19.56,0,.54.33l-.71,14A1.35,1.35,0,0,1,329.64,115.35Z" style="fill:#fafafa"></path><path d="M327.46,116.4a.42.42,0,0,0,.12,0h0A.42.42,0,0,1,327.46,116.4Z" style="opacity:0.1"></path><path d="M328.76,122.41c-1.11.65-1.78-.19-1.78-1.35a4.25,4.25,0,0,1,1.78-3.42c1.12-.64,1.79.19,1.79,1.35A4.21,4.21,0,0,1,328.76,122.41Z" style="fill:#fafafa"></path></g></g></g><g id="freepik--icon-1--inject-72"><g id="freepik--Icon--inject-72"><path d="M126.09,63.93l-13.9-8h0C103.67,51.07,92,51.82,79,59.29,52.94,74.34,31.81,110.94,31.81,141c0,15,5.27,25.58,13.78,30.52h0l0,0h0l13.93,8c8.6,5.47,20.73,5,34.18-2.79,26.07-15.05,47.2-51.65,47.2-81.74C140.94,79.39,135.23,68.59,126.09,63.93Z" style="fill:#BA68C8"></path><g style="opacity:0.15"><path d="M33.59,125.18A76.19,76.19,0,0,0,31.81,141c0,15,5.27,25.58,13.78,30.52h0l0,0h0l14,8,4.18-7,11.71-23.24Z"></path></g><path d="M72.66,181.61c-15.12,0-24.51-12.29-24.51-32.09C48.15,120,69,83.94,94.55,69.17c7.16-4.14,14-6.23,20.28-6.23a21.73,21.73,0,0,1,17.61,8.23c4.51,5.66,6.9,13.91,6.9,23.86,0,29.53-20.82,65.58-46.4,80.35-7.16,4.14-14,6.23-20.28,6.23Z" style="fill:#fafafa"></path><path d="M114.83,64.54a20.18,20.18,0,0,1,16.35,7.63c4.29,5.37,6.55,13.27,6.55,22.86,0,29-20.45,64.45-45.59,79-6.82,3.94-13.55,6-19.48,6a20.16,20.16,0,0,1-16.35-7.64C52,167,49.76,159.1,49.76,149.52c0-29,20.45-64.45,45.59-79,6.82-3.94,13.55-6,19.48-6m0-3.21c-6.35,0-13.51,2.07-21.08,6.45-26.07,15-47.2,51.65-47.2,81.74,0,21.35,10.63,33.7,26.11,33.7,6.35,0,13.51-2.07,21.08-6.45,26.07-15.05,47.2-51.65,47.2-81.74,0-21.35-10.63-33.7-26.11-33.7Z" style="fill:#e0e0e0"></path><path d="M114,119.64V100.56c0-8.34-4.51-12.69-10.45-10.73V84.12c0-.94-.81-1-1.36-.1l-8,13c-.43.7-.43,1.58,0,1.78l8,3.68c.55.25,1.36-.74,1.36-1.68v-5c3.51-.67,6.09,2.16,6.09,7.28v19.08a21.85,21.85,0,0,0-6.5,14.93c0,6.38,3.89,9.33,8.68,6.56s8.67-10.2,8.67-16.58C120.53,121.7,117.77,118.78,114,119.64Zm-2.18,18.2c-2.38,1.37-4.32-.09-4.32-3.26s1.94-6.88,4.32-8.25,4.31.09,4.31,3.26S114.24,136.47,111.86,137.84Zm-24.1-36.25c0-6.38-3.89-9.33-8.68-6.56s-8.67,10.2-8.67,16.57c0,5.38,2.76,8.3,6.49,7.44v22A21.89,21.89,0,0,0,70.41,156c0,6.37,3.89,9.32,8.67,6.56s8.68-10.2,8.68-16.58c0-5.38-2.77-8.3-6.5-7.44v-22A21.89,21.89,0,0,0,87.76,101.59ZM83.4,148.51c0,3.18-1.94,6.88-4.32,8.25s-4.31-.09-4.31-3.26,1.93-6.88,4.31-8.25S83.4,145.34,83.4,148.51Zm-4.32-36.16c-2.38,1.37-4.31-.09-4.31-3.26s1.93-6.88,4.31-8.25,4.32.09,4.32,3.26S81.46,111,79.08,112.35Z" style="fill:#BA68C8"></path></g></g><g id="freepik--button--inject-72"><g id="freepik--Title--inject-72"><g id="freepik--Box--inject-72"><path d="M415.45,259.12V284a5.69,5.69,0,0,1-2.56,4.45L324.83,339.3a5.66,5.66,0,0,1-5.13,0l-2.1-1.21a5.69,5.69,0,0,1-2.56-4.45V308.79a5.68,5.68,0,0,1,2.57-4.45l88.06-50.86a5.66,5.66,0,0,1,5.13,0l2.09,1.2A5.71,5.71,0,0,1,415.45,259.12Z" style="fill:#BA68C8"></path><path d="M315,333.65a5.69,5.69,0,0,0,2.56,4.44l2.09,1.2a5.71,5.71,0,0,0,4.69.21c-1.2.46-2.12-.22-2.12-1.69V313a5.16,5.16,0,0,1,.75-2.52l-7.22-4.17a5.27,5.27,0,0,0-.75,2.53Z" style="opacity:0.2"></path><path d="M415.37,258.4c-.3-1.09-1.29-1.44-2.48-.76l-88.07,50.87a5.09,5.09,0,0,0-1.81,1.92l-7.21-4.17a5.21,5.21,0,0,1,1.81-1.91l88.06-50.87a5.69,5.69,0,0,1,5.13,0l2.09,1.21A5.64,5.64,0,0,1,415.37,258.4Z" style="fill:#fff;opacity:0.30000000000000004"></path></g><path d="M329,328.59V314.17a1.78,1.78,0,0,1,.12-.71,1,1,0,0,1,.41-.44l2.5-1.44a1.89,1.89,0,0,1,2-.14c.58.33.87,1.43.87,3.27a9.89,9.89,0,0,1-.5,3.33,7.19,7.19,0,0,1-1.12,2.11,4.42,4.42,0,0,1-1.11,1l-1.22.71v5.6a1.29,1.29,0,0,1-.76,1.1l-.4.23C329.21,329.09,329,329,329,328.59Zm3-9.84a1.85,1.85,0,0,0,.7-.92,5.31,5.31,0,0,0,.3-2,2.65,2.65,0,0,0-.3-1.58.53.53,0,0,0-.73-.07l-1,.58v4.61Z" style="fill:#fafafa"></path><path d="M336.9,323.52c-.61-.48-.91-1.47-.91-3V309.88a1.27,1.27,0,0,1,.75-1.1l.46-.26c.5-.29.75-.21.75.22v10.57a2,2,0,0,0,.41,1.43.84.84,0,0,0,1.09,0,2.81,2.81,0,0,0,1.08-1.27,4.44,4.44,0,0,0,.42-1.91V307a1.26,1.26,0,0,1,.75-1.09l.44-.26c.5-.29.76-.21.76.23v10.68a8.74,8.74,0,0,1-.91,4,6.43,6.43,0,0,1-2.54,2.72C338.36,323.93,337.51,324,336.9,323.52Z" style="fill:#fafafa"></path><path d="M344.8,319.86a.94.94,0,0,1-.12-.58V304.86a1.26,1.26,0,0,1,.75-1.09l.46-.27c.26-.15.45-.21.57-.17s.18.17.18.4v12.72l2.5-1.45c.14-.08.24-.05.3.07a2.09,2.09,0,0,1,.08.69v.59a3.16,3.16,0,0,1-.08.78.66.66,0,0,1-.3.41l-4,2.29C345,319.93,344.87,319.94,344.8,319.86Z" style="fill:#fafafa"></path><path d="M350.8,316.39a1,1,0,0,1-.11-.58V301.39a1.26,1.26,0,0,1,.75-1.09l.45-.27c.27-.15.46-.21.58-.17s.18.17.18.4V313l2.5-1.45c.14-.08.23,0,.29.07a1.79,1.79,0,0,1,.09.69v.59a2.81,2.81,0,0,1-.09.79.65.65,0,0,1-.29.4l-4,2.29Q350.92,316.51,350.8,316.39Z" style="fill:#fafafa"></path><path d="M358.68,311.42V297a1.8,1.8,0,0,1,.13-.71.9.9,0,0,1,.39-.43l2.37-1.37q3-1.71,3,2.6a7.76,7.76,0,0,1-1.38,4.63v.09c.39.11.72.74,1,1.9l.88,3.86,0,.13a.78.78,0,0,1,0,.14c0,.35-.27.68-.8,1l-.43.25c-.46.27-.71.24-.76-.08l-.81-3.89a1.6,1.6,0,0,0-.41-.83c-.15-.1-.38-.07-.7.11l-.54.32v5.6a1.31,1.31,0,0,1-.78,1.11l-.4.23C358.94,311.93,358.68,311.86,358.68,311.42Zm3-10.09a1.86,1.86,0,0,0,.68-1,5.14,5.14,0,0,0,.28-1.79,2.57,2.57,0,0,0-.27-1.44c-.18-.24-.43-.26-.75-.08l-1,.58v4.35Z" style="fill:#fafafa"></path><path d="M366.39,307.39a.9.9,0,0,1-.12-.58V292.62a1.8,1.8,0,0,1,.12-.72.88.88,0,0,1,.38-.41l4.3-2.48c.14-.08.24-.06.3.07a2,2,0,0,1,.08.68v.59a3.25,3.25,0,0,1-.08.79.69.69,0,0,1-.3.41l-2.84,1.64v3.94l2.53-1.46c.14-.08.24-.06.3.07a2,2,0,0,1,.08.69V297a3.19,3.19,0,0,1-.08.79.66.66,0,0,1-.3.41l-2.53,1.47V304l2.85-1.65c.13-.07.23-.05.29.07a2,2,0,0,1,.08.69v.59a3.17,3.17,0,0,1-.08.8.64.64,0,0,1-.29.39l-4.31,2.49C366.59,307.47,366.47,307.48,366.39,307.39Z" style="fill:#fafafa"></path><path d="M378.66,303.29c-1.22-.34-2.51-.64-3.86-.9-.71-.14-1.24-.72-1.6-1.76a15.22,15.22,0,0,1-.53-4.61q0-8.1,3.81-10.29t3.78,5.91c0,4-.69,6.91-2.08,8.7v.09l2.33.38c.12,0,.18.11.18.29a4.73,4.73,0,0,1-.16.77,6.34,6.34,0,0,1-.34,1,1.17,1.17,0,0,1-.39.6A3.88,3.88,0,0,1,378.66,303.29Zm-.83-5.93a17.89,17.89,0,0,0,.44-4.57,12.18,12.18,0,0,0-.43-4c-.29-.68-.74-.84-1.35-.49a3.27,3.27,0,0,0-1.37,2.06,17.68,17.68,0,0,0-.44,4.54,12.28,12.28,0,0,0,.44,4.07.86.86,0,0,0,1.37.49A3.31,3.31,0,0,0,377.83,297.36Z" style="fill:#fafafa"></path><path d="M382.63,297.12c-.61-.48-.91-1.47-.91-3V283.47a1.26,1.26,0,0,1,.75-1.09l.46-.26c.5-.29.75-.22.75.22v10.57a2,2,0,0,0,.41,1.43c.28.27.64.27,1.09,0a2.71,2.71,0,0,0,1.08-1.27,4.41,4.41,0,0,0,.42-1.91V280.61a1.27,1.27,0,0,1,.75-1.1l.44-.25c.51-.29.76-.21.76.22v10.69a8.74,8.74,0,0,1-.91,4,6.4,6.4,0,0,1-2.54,2.71C384.09,297.52,383.24,297.6,382.63,297.12Z" style="fill:#fafafa"></path><path d="M390.53,293.46a.94.94,0,0,1-.12-.58v-14.2a1.71,1.71,0,0,1,.12-.71.91.91,0,0,1,.38-.42l4.3-2.48c.14-.08.24-.06.29.07a1.73,1.73,0,0,1,.09.68v.59a2.72,2.72,0,0,1-.09.79.64.64,0,0,1-.29.41l-2.84,1.64v3.95l2.53-1.46q.21-.12.3.06a2.13,2.13,0,0,1,.08.69v.59a3.31,3.31,0,0,1-.08.79.64.64,0,0,1-.3.4l-2.53,1.47v4.31l2.85-1.65c.13-.08.23-.06.28.06a1.78,1.78,0,0,1,.09.7v.59a2.75,2.75,0,0,1-.09.8.64.64,0,0,1-.28.39l-4.31,2.49C390.73,293.53,390.61,293.54,390.53,293.46Z" style="fill:#fafafa"></path><path d="M397.82,289.29a1.26,1.26,0,0,1-1-.25,2.41,2.41,0,0,1-.14-.28,1.08,1.08,0,0,1,0-.35,4.8,4.8,0,0,1,.18-1.22,1.41,1.41,0,0,1,.39-.81.38.38,0,0,1,.3,0l.25.07a1.54,1.54,0,0,0,1.37-.15,2.66,2.66,0,0,0,.95-1,3.2,3.2,0,0,0,.39-1.63,1.74,1.74,0,0,0-.35-1.27,2.37,2.37,0,0,0-1.07-.5,3.48,3.48,0,0,1-1.23-.52,2.31,2.31,0,0,1-.75-1.07,5.69,5.69,0,0,1-.27-2,8.09,8.09,0,0,1,.85-3.7,5.81,5.81,0,0,1,2.23-2.45,3.14,3.14,0,0,1,1-.38,1.44,1.44,0,0,1,.85.06c.14.07.21.24.21.49a5.37,5.37,0,0,1-.16,1.21c-.11.47-.23.74-.37.82a.61.61,0,0,1-.34,0,1.87,1.87,0,0,0-1.1.28,2.19,2.19,0,0,0-.94,1,3.12,3.12,0,0,0-.32,1.36,2.13,2.13,0,0,0,.2,1,.94.94,0,0,0,.46.45c.17.07.48.17.94.3a2.68,2.68,0,0,1,1.54,1,4.42,4.42,0,0,1,.5,2.45,9.52,9.52,0,0,1-.36,2.59,7.82,7.82,0,0,1-1.07,2.3,5.44,5.44,0,0,1-1.72,1.6A3.77,3.77,0,0,1,397.82,289.29Z" style="fill:#fafafa"></path><path d="M405,284.69V272l-1.8,1c-.13.08-.23.06-.29-.07a1.73,1.73,0,0,1-.09-.68v-.59a2.76,2.76,0,0,1,.09-.79.72.72,0,0,1,.29-.41l5.57-3.21c.14-.08.24-.06.3.05a1.55,1.55,0,0,1,.1.69v.59a2.46,2.46,0,0,1-.1.81.69.69,0,0,1-.3.4l-1.8,1v12.72a1.27,1.27,0,0,1-.75,1.09l-.47.27C405.24,285.2,405,285.12,405,284.69Z" style="fill:#fafafa"></path></g></g></svg>